<?xml version="1.0" standalone="no"?>
<svg id="SvgjsSvg1001" width="600" height="600" xmlns="http://www.w3.org/2000/svg" version="1.1" xmlns:xlink="http://www.w3.org/1999/xlink" xmlns:svgjs="http://svgjs.com/svgjs" class="svg-paper" viewBox="0 0 600 600"><title id="SvgjsTitle3669">x=(y+max(x,sin(y*y)))|y=cos(sqrt(x*x + y*y))|dTest=0.0|sd=0.2|sm=0.2|ts=0.05 | generated with FlowLines</title><g id="SvgjsG3670"><polyline id="SvgjsPolyline3671" points="365.34,364.08 368.28,364.51 370.19,366.8 368.54,369.22 365.58,369.56 362.8,368.46 360.68,366.35 359.63,363.55 359.85,360.57 361.19,357.89 363.27,355.75 365.81,354.16 368.61,353.08 371.54,352.43 377.52,352.21 383.45,353.1 391.98,355.93 399.97,360.05 404.99,363.34 409.77,366.96 416.53,372.9 424.8,381.59 430.51,388.54 437.5,398.3 442.29,405.91 448.07,416.43 453.08,427.33 456.21,435.76 457.92,441.51 459.22,447.37 460.01,453.31 460.11,459.31 459.36,465.26 458.62,468.16 457.64,471 454.98,476.37 451.52,481.26 447.45,485.67 442.95,489.63 438.14,493.22 433.11,496.49 425.28,500.91 411.72,507.32 392.12,514.85 369.22,522.03 340.22,529.69 313.83,535.38 287.2,539.88 257.46,543.79 224.61,546.88 194.66,548.58 167.66,549.06 140.67,548.43 113.74,546.63 86.91,543.59 63.23,539.7 42.74,535.11 25.48,530.02 0,521.08" fill="none" stroke="#111111" stroke-width="0.5"/><polyline id="SvgjsPolyline3672" points="366.79,369.21 364.02,368.12 363.38,365.24 365.94,363.78 368.86,364.37 371.1,366.35 371.79,369.25 370.58,371.97 368.28,373.89 365.54,375.1 359.64,376.07 356.64,376.01 350.73,374.99 347.89,374.04 345.25,372.61 342.93,370.73 340.97,368.46 337.96,363.28 335.64,357.75 330.56,343.64 328.43,334.9 327.95,325.93 329.19,317.03 330.97,311.3 335.01,303.28 340.54,296.2 347.3,290.28 354.98,285.6 363.28,282.14 371.96,279.79 380.86,278.43 392.84,277.9 401.83,278.31 413.74,279.73 425.53,281.93 440.1,285.51 457.36,290.6 503.1,305.18 517.56,309.16 532.18,312.51 549.92,315.49 564.85,316.98 579.83,317.56 597.83,317.13" fill="none" stroke="#111111" stroke-width="0.5"/><polyline id="SvgjsPolyline3673" points="363.14,366.4 365,364.14 367.97,364.3 370.21,366.27 369.54,369.13 366.84,370.38 363.85,370.31 361,369.37 358.46,367.79 356.29,365.71 354.59,363.25 353.41,360.49 352.78,357.56 352.7,354.57 353.16,351.61 355.06,345.92 356.4,343.24 360.02,338.47 362.21,336.42 367.15,333.03 369.83,331.68 375.46,329.62 384.29,327.99 390.29,327.72 396.28,327.99 405.18,329.27 413.93,331.36 422.5,334.1 430.91,337.33 447.28,344.78 479.29,361.26 495.5,369.09 509.35,374.85 523.58,379.58 532.29,381.82 541.12,383.57 550.03,384.82 559,385.57 567.99,385.86 576.99,385.72 585.97,385.2 597.91,384" fill="none" stroke="#111111" stroke-width="0.5"/><polyline id="SvgjsPolyline3674" points="363.22,365.83 365.54,364.03 368.46,364.57 370.3,366.91 368.79,369.43 365.88,370.1 362.95,369.5 360.33,368.04 358.2,365.94 356.69,363.36 355.89,360.47 355.84,357.48 356.5,354.55 357.76,351.84 359.52,349.41 361.65,347.31 364.08,345.54 369.48,342.97 372.36,342.12 378.28,341.18 387.27,340.95 396.19,342.07 402.03,343.47 410.56,346.33 418.82,349.89 426.83,354 442.24,363.28 474.45,385.28 487.08,393.36 494.88,397.84 502.9,401.93 511.14,405.54 516.76,407.63 525.37,410.25 534.15,412.22 543.06,413.53 555.03,414.32 564.02,414.27 576,413.48 587.91,412.04 599.75,410.11" fill="none" stroke="#111111" stroke-width="0.5"/><polyline id="SvgjsPolyline3675" points="366.51,364 369.25,365.16 369.72,368.07 367.06,369.34 364.17,368.6 362.18,366.37 362.29,363.4 364.28,361.18 367.04,360.03 370.01,359.72 373,360.02 378.66,361.93 381.29,363.38 388.54,368.69 392.74,372.98 396.33,377.78 399.3,382.99 401.61,388.52 403.24,394.29 404.14,400.22 404.28,406.21 403.65,412.18 401.29,420.85 397.43,428.96 392.33,436.37 386.31,443.06 377.27,450.94 372.44,454.49 364.9,459.41 349.19,468.19 335.83,474.99 321.98,480.76 307.85,485.79 287.82,492.08 270.47,496.88 250.07,501.84 206.06,511.25 182.5,515.82 161.76,519.07 143.85,520.89 128.87,521.55 116.87,521.48 101.89,520.67 86.97,519.13 72.13,516.98 54.41,513.83 1.57,502.67" fill="none" stroke="#111111" stroke-width="0.5"/><polyline id="SvgjsPolyline3676" points="370.02,368 367.61,369.71 364.63,369.66 361.89,368.46 359.68,366.43 358.24,363.81 357.73,360.86 358.15,357.9 359.37,355.17 361.22,352.8 363.5,350.86 366.07,349.32 368.84,348.17 374.68,346.86 377.67,346.64 383.66,346.89 392.48,348.67 398.16,350.58 403.68,352.92 409.03,355.64 416.76,360.25 424.15,365.38 433.64,372.73 447.25,384.5 475.88,410.99 482.75,416.79 489.89,422.27 497.38,427.27 505.25,431.62 513.52,435.17 519.22,437.03 525.04,438.48 533.93,439.88 542.91,440.44 551.9,440.3 560.87,439.59 572.76,437.95 584.55,435.73 599.18,432.41" fill="none" stroke="#111111" stroke-width="0.5"/><polyline id="SvgjsPolyline3677" points="365.06,364.15 368.02,364.39 370.12,366.51 368.67,369.05 365.71,369.39 362.98,368.16 361.17,365.78 360.9,362.81 362.18,360.12 364.42,358.14 367.13,356.87 370.05,356.21 373.05,356.03 378.98,356.8 384.67,358.68 392.57,362.98 397.37,366.57 403.9,372.76 407.79,377.32 412.93,384.7 417.42,392.5 421.15,400.69 423.96,409.23 425.25,415.09 426.22,424.03 426.14,430.03 425.43,435.98 424.06,441.82 420.78,450.19 416.19,457.92 412.53,462.67 408.47,467.09 399.47,475.01 394.63,478.56 387.08,483.45 373.92,490.64 357.5,498.01 340.66,504.35 323.52,509.86 297.52,517.13 265.86,526.45 248.43,530.9 230.77,534.4 212.97,537.03 195.07,538.92 174.11,540.28 150.12,540.77 129.13,540.25 105.19,538.51 84.36,535.86 66.67,532.58 52.1,529.02 0.46,513.23" fill="none" stroke="#111111" stroke-width="0.5"/><polyline id="SvgjsPolyline3678" points="364.78,364.24 367.76,364.26 370.05,366.16 369.13,368.94 366.26,369.73 363.36,369 360.95,367.24 359.33,364.72 358.77,361.78 359.3,358.84 360.74,356.22 362.81,354.06 365.3,352.38 368.04,351.16 370.92,350.34 376.88,349.72 382.85,350.18 391.57,352.36 399.86,355.85 410.19,361.93 417.44,367.26 424.31,373.08 430.84,379.27 437.08,385.76 450.78,401.67 476.9,434.56 486.93,445.7 493.56,451.79 498.34,455.41 503.46,458.53 508.9,461.05 514.61,462.88 523.48,464.37 532.47,464.61 541.44,463.92 553.29,462.05 565.01,459.47 579.51,455.64 599.65,449.68" fill="none" stroke="#111111" stroke-width="0.5"/><polyline id="SvgjsPolyline3679" points="365.19,364.11 368.15,364.45 370.15,366.64 368.61,369.13 365.65,369.47 362.9,368.32 360.91,366.09 360.18,363.19 360.89,360.29 362.67,357.89 365.09,356.13 367.85,354.97 370.78,354.31 373.77,354.07 379.73,354.6 385.52,356.16 393.7,359.89 401.22,364.83 408.09,370.63 414.34,377.11 419.98,384.12 425.03,391.56 429.47,399.39 433.26,407.55 436.32,416.01 438.61,424.71 440.13,433.58 440.52,439.56 440.3,445.55 438.71,454.4 435.52,462.8 432.56,468.02 429.03,472.86 425.03,477.33 420.66,481.44 411.12,488.72 398.25,496.39 381.98,504.1 365.21,510.61 348.11,516.23 307.8,528.02 293.27,531.77 281.56,534.36 257.93,538.57 234.14,541.72 210.25,543.99 183.3,545.52 156.3,545.93 129.32,545.12 105.39,543.32 81.57,540.4 60.88,536.78 43.36,532.66 28.99,528.39 0.62,518.64" fill="none" stroke="#111111" stroke-width="0.5"/><polyline id="SvgjsPolyline3680" points="363.28,365.68 365.7,364.02 368.6,364.69 370.19,367.2 368.23,369.38 365.25,369.55 362.5,368.38 360.4,366.24 359.31,363.46 359.41,360.47 360.59,357.72 362.54,355.45 364.97,353.7 367.69,352.44 373.54,351.17 379.53,351.22 385.43,352.25 391.16,354.03 396.67,356.4 404.51,360.81 409.46,364.2 414.2,367.88 420.94,373.84 431.31,384.66 437.08,391.57 444.32,401.15 455.9,418.66 467.73,439.53 474.47,452.93 479.42,463.86 483.59,475.11 485.03,480.93 485.4,483.91 485.4,486.9 484.89,489.85 483.76,492.62 482.07,495.1 479.98,497.25 475.16,500.81 467.23,505.06 456.19,509.75 444.92,513.86 433.52,517.61 416.27,522.75 395.98,528.15 378.47,532.35 343.22,539.63 307.71,545.52 271.99,550.05 239.12,552.97 206.18,554.8 176.18,555.33 146.2,554.55 116.27,552.44 83.49,548.68 50.92,543.43 24.52,537.76 12.92,534.7 1.43,531.22" fill="none" stroke="#111111" stroke-width="0.5"/><polyline id="SvgjsPolyline3681" points="364.43,364.4 367.38,364.14 369.85,365.81 369.33,368.69 366.5,369.6 363.61,368.86 361.28,366.98 359.97,364.29 359.99,361.3 361.22,358.58 363.27,356.4 365.81,354.81 368.61,353.75 371.55,353.14 377.54,353.03 383.44,354.04 391.9,357.07 399.78,361.41 407.08,366.67 413.81,372.64 420.02,379.16 425.73,386.11 432.6,395.94 437.21,403.67 442.56,414.41 446.88,425.6 449.25,434.27 450.29,440.18 450.79,446.16 450.26,455.13 448.92,460.97 446.95,466.64 444.39,472.06 441.13,477.09 437.28,481.69 432.98,485.88 428.35,489.69 423.47,493.18 418.4,496.38 410.53,500.75 396.95,507.12 380.18,513.63 360.2,520.1 325.52,529.76 313.86,532.58 299.18,535.66 272.56,540.15 245.78,543.58 218.9,546.1 188.95,547.8 161.95,548.24 134.96,547.55 108.03,545.65 84.19,542.89 60.51,539 40.02,534.41 22.75,529.35 0.11,521.4" fill="none" stroke="#111111" stroke-width="0.5"/><polyline id="SvgjsPolyline3682" points="364.62,364.31 367.59,364.2 369.97,366 369.21,368.83 366.35,369.66 363.46,368.9 361.11,367.06 359.67,364.44 359.43,361.46 360.37,358.62 362.17,356.23 364.52,354.38 367.21,353.05 370.08,352.17 376.03,351.55 379.03,351.7 384.93,352.73 390.65,354.53 398.8,358.33 403.95,361.42 411.23,366.7 415.82,370.56 422.33,376.77 428.43,383.38 434.16,390.33 441.27,399.99 446.22,407.5 455.22,423.09 459.24,431.14 462.88,439.37 466.02,447.81 467.72,453.56 468.98,459.42 469.59,465.39 469.27,471.37 468.08,477.25 467.19,480.11 464.51,485.47 462.78,487.92 458.73,492.34 454.13,496.19 449.19,499.58 441.38,504.04 433.27,507.96 422.2,512.58 410.93,516.71 385.15,524.7 367.74,529.27 353.14,532.71 320.79,539.21 285.23,544.79 252.45,548.58 219.55,551.14 189.58,552.42 159.58,552.48 129.61,551.19 99.73,548.55 72.96,545.02 58.17,542.54 43.45,539.64 23.05,534.67 11.55,531.24 0.19,527.38" fill="none" stroke="#111111" stroke-width="0.5"/><polyline id="SvgjsPolyline3683" points="368.68,368.86 365.71,369.06 363.26,367.37 363.5,364.43 366.15,363.09 369.13,363.31 371.85,364.56 374.11,366.52 375.78,369.01 376.72,371.85 376.87,374.84 376.26,377.77 375.02,380.5 373.3,382.95 369.15,387.29 364.4,390.93 359.14,393.81 350.77,397.1 342.1,399.52 330.34,401.87 318.46,403.6 273.79,409.01 256.05,412.02 238.44,415.76 220.98,420.12 203.64,424.95 123.38,449.73 111.83,452.99 100.17,455.83 88.38,458.03 76.45,459.35 67.46,459.69 55.47,459.26 43.55,457.9 31.74,455.79 17.13,452.42 2.64,448.54" fill="none" stroke="#111111" stroke-width="0.5"/><polyline id="SvgjsPolyline3684" points="369.06,368.63 366.14,369.15 363.54,367.68 363.56,364.74 366.25,363.49 369.19,364.02 371.66,365.69 373.31,368.19 373.8,371.14 373.07,374.03 371.43,376.54 369.23,378.57 366.7,380.18 361.14,382.41 355.29,383.72 346.34,384.61 337.35,384.53 331.39,383.86 325.55,382.5 320,380.24 317.44,378.68 315.11,376.79 313.07,374.59 311.36,372.13 309.94,369.49 307.76,363.9 297.57,329.38 293.97,314.82 293.01,308.9 292.48,302.92 292.49,296.93 293.17,290.97 294.6,285.15 296.83,279.58 299.81,274.38 305.49,267.42 309.91,263.36 317.22,258.12 322.42,255.14 330.59,251.36 336.21,249.28 344.85,246.76 350.72,245.51 359.62,244.21 368.6,243.54 377.59,243.41 386.59,243.76 395.55,244.52 413.37,247.08 431,250.69 448.47,255.03 503.49,269.91 518.11,273.28 532.84,276.1 547.68,278.25 565.61,279.84 580.6,280.29 598.59,279.86" fill="none" stroke="#111111" stroke-width="0.5"/><polyline id="SvgjsPolyline3685" points="368.16,369.05 365.19,368.84 363.08,366.74 364.39,364.11 367.32,363.62 370.11,364.69 372.21,366.82 373.15,369.66 372.68,372.61 371.1,375.14 368.86,377.13 366.27,378.64 360.6,380.56 351.7,381.78 345.7,381.62 339.83,380.45 337.04,379.35 334.47,377.81 332.21,375.84 330.34,373.5 328.81,370.92 325.18,362.69 315.17,331.25 313.03,322.51 312.29,316.56 312.14,310.56 313.12,301.63 315.63,293 319.69,284.98 325.18,277.86 331.85,271.84 339.41,266.98 344.81,264.36 350.41,262.22 356.16,260.5 362.01,259.19 367.94,258.24 376.9,257.43 391.89,257.45 406.82,258.87 421.61,261.34 439.17,265.32 453.65,269.2 502.67,283.27 517.23,286.89 531.91,289.95 549.7,292.69 564.63,294.09 579.62,294.66 597.61,294.31" fill="none" stroke="#111111" stroke-width="0.5"/><polyline id="SvgjsPolyline3686" points="367.57,369.17 364.66,368.56 363.14,366.01 365.26,363.98 368.23,364.24 370.56,366.1 371.04,369.03 369.31,371.45 366.65,372.82 363.72,373.42 360.72,373.45 357.77,372.93 355.01,371.77 352.6,369.99 350.59,367.77 348.9,365.29 344.87,357.25 342.97,351.57 342.3,345.62 342.54,339.62 343.58,333.72 345.64,328.09 348.62,322.89 352.39,318.23 356.81,314.19 359.23,312.42 364.39,309.36 372.72,305.99 378.53,304.49 387.44,303.23 396.43,302.99 405.41,303.6 417.26,305.47 428.92,308.26 448.93,314.64 488.15,329.65 505.09,335.73 519.42,340.16 533.98,343.77 551.72,346.79 566.66,348.12 581.65,348.42 599.63,347.56" fill="none" stroke="#111111" stroke-width="0.5"/><polyline id="SvgjsPolyline3687" points="364.52,364.18 367.47,363.87 370.14,365.21 371.75,367.73 371.48,370.69 369.67,373.06 367.13,374.66 364.3,375.63 358.35,376.34 355.36,376.15 352.43,375.49 349.69,374.29 347.28,372.51 345.26,370.3 343.59,367.81 340.92,362.44 336.55,351.27 334.77,345.54 334.2,342.6 333.76,336.62 333.89,333.62 334.83,327.7 336.66,321.99 339.33,316.63 340.96,314.11 346.71,307.19 351.08,303.09 355.94,299.58 363.91,295.42 372.43,292.54 381.25,290.8 390.22,290.04 402.21,290.31 414.12,291.74 428.81,294.75 440.39,297.88 451.85,301.44 491.54,315.19 505.8,319.83 523.13,324.69 537.78,327.91 552.6,330.22 567.54,331.55 582.53,331.92 597.52,331.4" fill="none" stroke="#111111" stroke-width="0.5"/><polyline id="SvgjsPolyline3688" points="367.18,369.21 364.32,368.36 363.13,365.65 365.38,363.75 368.35,363.91 370.92,365.44 372.57,367.94 372.8,370.91 371.64,373.66 369.6,375.85 367.09,377.48 364.33,378.67 358.51,380.08 352.54,380.63 349.54,380.57 343.63,379.6 340.81,378.57 338.21,377.09 335.93,375.14 334.04,372.81 332.49,370.24 329.07,361.93 320.72,336.25 319.41,330.4 318.75,324.44 319.07,315.46 321.01,306.68 324.59,298.44 327.85,293.4 331.57,288.7 337.96,282.38 345.33,277.24 353.41,273.28 361.93,270.41 367.77,269.05 373.69,268.09 385.66,267.2 397.65,267.49 412.55,269.15 427.29,271.91 441.87,275.46 502.26,293.38 516.77,297.19 531.42,300.42 546.2,302.92 564.1,304.81 582.09,305.46 597.08,305.1" fill="none" stroke="#111111" stroke-width="0.5"/><polyline id="SvgjsPolyline3689" points="363.14,366.62 364.75,364.18 367.72,364.12 370.19,365.81 370.72,368.72 368.8,371 366.01,372.08 363.03,372.32 360.06,371.93 357.26,370.86 354.8,369.15 352.74,366.97 351,364.53 348.12,359.27 346.25,353.59 345.81,347.62 346.77,341.71 348.99,336.15 352.3,331.15 354.3,328.92 358.84,325 363.94,321.86 369.44,319.47 378.05,316.86 383.95,315.8 392.93,315.24 401.91,315.71 410.82,317.01 419.6,318.98 431.1,322.39 450.74,329.82 486.51,345.36 500.4,351 514.54,356 528.97,360.11 543.66,363.13 552.57,364.37 561.53,365.19 579.52,365.58 597.49,364.55" fill="none" stroke="#111111" stroke-width="0.5"/><polyline id="SvgjsPolyline3690" points="364,364.67 366.89,364.01 369.55,365.35 370.16,368.24 367.85,370.1 364.88,370.41 361.97,369.72 359.32,368.32 357.04,366.38 355.2,364.01 353.89,361.32 353.13,358.42 352.94,355.43 353.3,352.45 354.18,349.59 355.5,346.9 357.21,344.43 359.23,342.22 363.99,338.59 366.64,337.17 372.25,335.07 375.16,334.36 381.1,333.54 387.1,333.42 393.08,333.9 398.99,334.88 407.71,337.11 416.21,340.07 427.21,344.84 443.16,353.19 474.2,371.42 489.93,380.17 506.19,387.88 520.26,393.05 528.93,395.48 537.73,397.34 546.64,398.64 555.6,399.39 567.6,399.61 576.59,399.25 585.56,398.51 597.47,397.03" fill="none" stroke="#111111" stroke-width="0.5"/><polyline id="SvgjsPolyline3691" points="364.22,364.52 367.15,364.07 369.72,365.58 369.76,368.52 367.14,369.92 364.16,369.73 361.43,368.51 359.17,366.54 357.56,364.01 356.74,361.13 356.74,358.14 357.51,355.25 358.93,352.61 360.84,350.3 363.13,348.36 368.41,345.55 371.26,344.63 377.17,343.62 383.17,343.55 392.07,344.82 397.86,346.38 406.28,349.53 414.39,353.44 422.19,357.92 429.73,362.83 439.47,369.85 472.42,395.88 484.59,404.65 499.98,413.97 505.34,416.68 513.62,420.2 522.16,423 530.93,425.04 539.83,426.31 551.81,426.94 560.81,426.72 572.76,425.68 584.64,423.98 599.38,421.19" fill="none" stroke="#111111" stroke-width="0.5"/><polyline id="SvgjsPolyline3692" points="369.97,366.13 368.83,368.82 365.88,369.17 363.29,367.68 362.57,364.8 364.44,362.51 367.29,361.6 370.28,361.71 373.17,362.52 375.85,363.85 378.3,365.58 382.36,369.98 385.16,375.26 386.55,381.09 386.82,387.08 386.64,390.07 385.34,395.92 384.28,398.72 381.46,404.01 375.9,411.08 369.28,417.16 364.47,420.75 356.87,425.56 348.95,429.83 340.81,433.66 321.31,441.44 290,451.87 278.76,456.06 265.11,462.27 246.54,472.09 238.44,476.01 230.16,479.51 221.71,482.61 210.26,486.2 198.67,489.3 184.04,492.61 169.3,495.39 154.47,497.66 139.57,499.42 124.62,500.63 112.64,501.18 100.64,501.35 85.64,501.01 70.67,500.08 58.73,498.93 43.85,497.02 32,495.12 17.28,492.28 2.66,488.9" fill="none" stroke="#111111" stroke-width="0.5"/><polyline id="SvgjsPolyline3693" points="369.31,368.51 366.46,369.31 363.68,368.22 362.09,365.7 362.85,362.83 365.2,361 368.09,360.22 371.09,360.22 374.03,360.79 379.52,363.17 384.34,366.72 388.41,371.12 391.67,376.15 392.97,378.85 394.88,384.54 395.8,390.46 395.88,393.46 395.28,399.42 394.61,402.34 393.71,405.2 390.2,413.49 387.12,418.63 383.5,423.41 377.27,429.9 370.38,435.68 363.01,440.84 352.69,446.97 342,452.4 322.86,461.05 296.1,474.6 287.85,478.2 276.63,482.45 262.34,487 244.97,491.72 224.53,496.52 201.02,501.35 180.34,505.03 162.54,507.68 144.66,509.71 129.7,510.8 114.7,511.25 102.71,511.13 87.73,510.39 72.79,509.05 57.9,507.2 40.11,504.45 22.41,501.22 1.85,496.93" fill="none" stroke="#111111" stroke-width="0.5"/><polyline id="SvgjsPolyline3694" points="365.93,364 368.8,364.83 370.04,367.52 367.73,369.33 364.76,369.05 362.33,367.31 361.22,364.54 361.97,361.66 364.02,359.49 366.7,358.15 369.62,357.5 372.62,357.4 378.52,358.4 384.1,360.59 386.74,362.02 391.69,365.4 396.19,369.36 402.1,376.14 405.46,381.11 408.34,386.37 410.7,391.88 413.18,400.52 414.07,406.46 414.29,412.45 413.79,418.42 412.76,424.33 410.2,432.95 407.7,438.4 404.65,443.57 399.21,450.73 395.11,455.11 390.72,459.19 381.26,466.57 368.57,474.55 355.25,481.44 338.74,488.62 319.03,495.84 296.09,502.9 214.71,523.68 200.06,526.9 188.24,528.97 173.36,530.89 158.41,532.08 140.42,532.62 125.42,532.34 107.47,531.12 89.61,528.87 77.79,526.79 63.14,523.59 2.1,508.01" fill="none" stroke="#111111" stroke-width="0.5"/><polyline id="SvgjsPolyline3695" points="368.67,369.26 365.73,369.75 362.88,368.86 360.52,367.01 358.95,364.47 358.37,361.53 358.82,358.58 360.14,355.89 362.11,353.63 364.5,351.82 367.16,350.46 370,349.49 375.92,348.56 378.92,348.53 384.88,349.15 393.57,351.45 399.15,353.67 404.53,356.32 412.25,360.93 419.59,366.14 426.58,371.81 433.28,377.81 446.01,390.54 472.42,419.23 478.78,425.6 485.44,431.65 495.02,438.86 502.76,443.45 510.91,447.26 516.59,449.18 522.42,450.58 531.34,451.77 540.33,452.01 549.32,451.5 558.25,450.42 570.07,448.33 584.7,445.02 599.21,441.23" fill="none" stroke="#111111" stroke-width="0.5"/><polyline id="SvgjsPolyline3696" points="363.54,365.18 366.24,363.98 369.05,364.98 370.06,367.76 367.71,369.56 364.73,369.46 362.06,368.12 360.07,365.88 359.1,363.05 359.29,360.07 360.51,357.33 362.46,355.06 364.89,353.3 367.6,352.02 370.47,351.17 376.43,350.53 379.42,350.66 385.34,351.6 393.9,354.37 401.97,358.33 411.99,364.93 418.98,370.59 427.7,378.83 433.84,385.41 441.57,394.58 448.88,404.1 455.85,413.87 480.91,451.24 488.36,460.64 492.57,464.92 499.54,470.6 504.75,473.56 507.53,474.67 513.34,476.13 519.32,476.67 528.3,476.25 537.19,474.89 548.9,472.25 560.46,469.06 597.6,457.15" fill="none" stroke="#111111" stroke-width="0.5"/><polyline id="SvgjsPolyline3697" points="364.93,364.19 367.9,364.32 370.11,366.33 368.97,369.02 366.06,369.67 363.19,368.82 360.88,366.93 359.46,364.3 359.19,361.32 360.06,358.46 361.79,356.01 364.08,354.09 366.72,352.66 369.55,351.69 372.49,351.11 375.48,350.88 381.46,351.25 390.19,353.42 398.44,356.98 403.67,359.93 408.67,363.23 418.07,370.68 424.64,376.84 432.83,385.61 438.59,392.51 445.85,402.07 455.99,416.94 463.88,429.7 489.2,473.96 492.66,478.86 494.65,481.11 499.14,485.08 501.66,486.7 504.43,487.85 507.35,488.48 513.34,488.57 519.28,487.74 528.05,485.7 550.96,478.58 599.02,461.53" fill="none" stroke="#111111" stroke-width="0.5"/><polyline id="SvgjsPolyline3698" points="361.05,367.12 359.54,364.53 359.19,361.56 359.98,358.68 361.66,356.2 363.92,354.24 366.54,352.78 369.36,351.79 372.3,351.19 375.29,350.93 381.27,351.28 390,353.42 395.56,355.66 400.9,358.39 410.92,364.98 415.62,368.71 422.32,374.72 432.64,385.6 442.07,397.26 450.78,409.47 460.46,424.64 475.23,450.75 495.54,490.91 497.18,493.41 496.11,496.15 491.64,500.1 489.04,501.6 480.77,505.13 466.62,510.11 449.46,515.55 426.4,522.19 408.99,526.77 388.58,531.69 350.4,539.63 314.9,545.6 282.18,549.92 243.36,553.55 213.41,555.34 180.42,556.1 150.43,555.44 120.5,553.44 87.7,549.82 55.09,544.78 28.63,539.42 14.08,535.78 2.56,532.43" fill="none" stroke="#111111" stroke-width="0.5"/><polyline id="SvgjsPolyline3699" points="369.54,365.44 369.41,368.37 366.58,369.25 363.82,368.11 362.68,365.37 364.46,363.01 367.33,362.21 370.31,362.52 373.11,363.59 375.63,365.21 377.81,367.27 379.61,369.66 381,372.32 381.93,375.17 382.38,378.13 382.34,381.13 381.85,384.09 379.66,389.66 378.09,392.21 374.24,396.81 369.75,400.78 364.92,404.34 357.24,409.02 351.87,411.7 343.59,415.21 335.12,418.27 323.67,421.85 303.39,427.31 248.06,441 236.52,444.27 225.1,447.97 213.88,452.2 202.91,457.06 179.03,469.67 170.92,473.56 162.57,476.92 154.02,479.73 145.32,482.03 136.52,483.9 127.65,485.39 115.74,486.85 106.77,487.58 94.78,488.08 73.79,487.74 52.88,485.83 41.02,483.99 32.2,482.21 23.46,480.05 14.85,477.45 0.87,472.02" fill="none" stroke="#111111" stroke-width="0.5"/><polyline id="SvgjsPolyline3700" points="363.43,364.71 366.03,363.3 369,363.59 371.66,364.97 373.74,367.12 375.04,369.82 375.39,372.79 374.81,375.73 373.46,378.4 371.58,380.73 366.84,384.39 361.45,387 352.83,389.55 340.97,391.35 329,392.13 311,392.04 284.04,390.61 272.04,390.3 260.07,390.96 251.18,392.35 242.43,394.47 231,398.12 177.68,418.25 160.68,424.17 143.55,429.68 126.26,434.69 111.72,438.37 97.04,441.45 85.19,443.35 67.27,445.03 55.28,445.26 46.28,444.96 37.31,444.28 25.4,442.83 13.57,440.85 1.81,438.43" fill="none" stroke="#111111" stroke-width="0.5"/><polyline id="SvgjsPolyline3701" points="369.63,368.11 366.91,369.25 364.08,368.28 362.77,365.62 364.53,363.25 367.43,362.56 370.38,363.04 373.09,364.31 375.45,366.16 377.38,368.45 378.82,371.08 379.71,373.94 380.01,376.92 379.75,379.91 378.95,382.8 377.72,385.53 376.11,388.06 374.22,390.39 369.83,394.47 362.29,399.37 354.14,403.18 342.82,407.13 328.31,410.92 254.73,425.43 231.32,430.73 211.02,436.11 196.66,440.44 179.61,446.21 162.81,452.66 129.65,466.67 121.14,469.6 112.46,471.97 100.67,474.19 85.74,475.57 70.75,475.55 58.79,474.57 46.94,472.72 32.37,469.16 18.15,464.4 1.36,457.92" fill="none" stroke="#111111" stroke-width="0.5"/><polyline id="SvgjsPolyline3702" points="363.84,368 363.24,365.11 365.7,363.46 368.67,363.66 371.33,365.04 373.34,367.25 374.45,370.03 374.48,373.02 373.5,375.85 371.79,378.31 369.62,380.37 367.14,382.06 361.71,384.58 353,386.8 344.07,387.93 332.08,388.16 323.12,387.36 317.22,386.27 311.47,384.57 306.08,381.96 303.65,380.2 299.36,376.01 297.52,373.65 295.97,371.08 293.6,365.57 281.42,325.38 278.58,313.72 277.64,307.8 277.17,301.82 277.3,295.83 278.16,289.89 279.82,284.13 282.29,278.67 285.48,273.59 291.35,266.79 298.19,260.94 305.68,255.96 313.62,251.74 321.9,248.2 330.41,245.27 339.1,242.94 347.92,241.17 356.84,239.99 365.82,239.38 374.82,239.29 383.81,239.64 392.78,240.39 410.6,242.88 431.17,247.07 451.55,252.16 497.9,264.64 515.42,268.75 530.14,271.62 547.95,274.21 562.89,275.56 580.88,276.15 598.87,275.7" fill="none" stroke="#111111" stroke-width="0.5"/><polyline id="SvgjsPolyline3703" points="367.51,364.19 369.9,365.97 368.99,368.74 366.06,369.24 363.39,367.92 362.18,365.2 363.46,362.52 366.05,361.04 369.01,360.59 371.99,360.88 374.87,361.71 377.6,362.96 382.48,366.42 384.62,368.53 388.22,373.32 390.85,378.7 392.43,384.48 392.8,387.46 392.7,393.45 391.51,399.32 390.53,402.16 389.34,404.91 386.37,410.12 382.76,414.91 378.68,419.3 374.22,423.32 367.04,428.74 359.44,433.56 348.88,439.24 332.46,446.62 304.55,457.59 296.4,461.42 269.66,475 253,481.81 238.74,486.45 224.28,490.43 206.75,494.55 189.11,498.11 171.37,501.14 156.52,503.23 138.62,505.12 123.65,506.1 108.65,506.48 93.66,506.25 78.68,505.41 66.73,504.33 51.84,502.54 34.05,499.8 16.36,496.49 1.7,493.3" fill="none" stroke="#111111" stroke-width="0.5"/><polyline id="SvgjsPolyline3704" points="368.97,364.95 369.87,367.76 367.34,369.26 364.43,368.59 362.56,366.27 363.4,363.43 365.98,361.94 368.95,361.67 371.9,362.23 374.66,363.38 377.19,364.99 379.45,366.96 381.41,369.23 383.06,371.74 385.29,377.29 385.84,380.24 385.78,386.22 384.29,392.02 383.08,394.76 379.92,399.86 373.87,406.49 369.25,410.32 364.32,413.74 359.17,416.82 351.17,420.93 342.93,424.56 331.73,428.86 308.91,436.27 271.41,447 259.98,450.66 251.54,453.76 237.83,459.84 216.71,471.23 208.64,475.23 200.37,478.76 189.05,482.74 180.41,485.26 168.75,488.1 156.98,490.44 145.13,492.34 133.23,493.82 121.28,494.89 109.29,495.55 97.3,495.8 85.3,495.64 73.31,495.07 61.35,494.1 46.46,492.32 34.61,490.44 22.83,488.13 11.16,485.33 2.51,482.87" fill="none" stroke="#111111" stroke-width="0.5"/><polyline id="SvgjsPolyline3705" points="554.36,598.18 542.59,580.79 530.44,560.1 521.95,544.23 511.13,522.81 504.58,509.31 504.01,506.38 505.5,503.81 507.74,501.84 512.77,498.56 520.84,494.6 551.47,482.31 599.13,464.17" fill="none" stroke="#111111" stroke-width="0.5"/><polyline id="SvgjsPolyline3706" points="553.68,597.68 545.13,585.36 537.14,572.66 514.9,533.55 508.47,523.42 504.57,518.87 502.26,516.96 499.67,515.45 496.87,514.38 493.94,513.73 487.98,513.1 481.99,513.2 470.12,514.93 455.46,518.13 408.79,529.34 382.42,535.14 355.93,540.34 323.38,545.8 296.64,549.5 266.82,552.76 239.91,554.92 212.95,556.42 185.96,557.06 161.96,556.76 137.99,555.6 108.1,552.99 81.31,549.65 51.7,544.88 25.25,539.44 2.05,533.31" fill="none" stroke="#111111" stroke-width="0.5"/><polyline id="SvgjsPolyline3707" points="369.32,368.43 366.46,369.2 363.76,367.94 363.26,365.03 365.74,363.41 368.72,363.59 371.39,364.93 373.46,367.09 374.7,369.82 374.93,372.8 374.18,375.69 372.67,378.28 370.64,380.48 365.71,383.87 360.19,386.21 354.4,387.78 345.52,389.22 336.55,389.92 324.55,389.9 315.58,389.19 306.68,387.86 297.94,385.75 292.29,383.72 287,380.91 282.22,377.3 278.12,372.94 276.46,370.43 273.84,365.04 258.53,322.73 255.97,314.11 254.74,308.24 254.04,299.28 254.2,296.28 255.21,290.37 256.08,287.5 258.49,282.02 261.68,276.94 265.47,272.29 269.71,268.05 274.29,264.18 284.17,257.38 294.71,251.64 308.49,245.74 322.76,241.13 337.37,237.78 352.23,235.7 367.2,234.96 379.2,235.27 391.15,236.26 403.05,237.82 417.82,240.43 441.22,245.74 502.16,261.72 519.74,265.59 534.51,268.23 552.36,270.51 567.32,271.59 582.31,271.91 597.31,271.52" fill="none" stroke="#111111" stroke-width="0.5"/><polyline id="SvgjsPolyline3708" points="363.03,366.75 364.16,364.04 367.04,363.29 369.94,364.02 372.4,365.72 374.18,368.13 375.06,370.98 374.95,373.97 373.93,376.79 372.24,379.27 370.12,381.38 365.09,384.64 362.36,385.87 356.67,387.76 347.85,389.51 335.91,390.65 320.91,390.7 308.95,389.78 297.07,388.08 285.34,385.59 276.67,383.15 268.2,380.14 257.23,375.27 249.36,370.92 239.12,364.66 233.71,362.08 230.82,361.27 227.84,361.01 224.88,361.47 222.15,362.69 219.76,364.49 217.67,366.65 206.95,381.09 200.84,387.7 194.03,393.57 186.7,398.79 173.74,406.33 160.2,412.79 146.3,418.41 129.27,424.25 111.95,429.12 97.31,432.4 82.52,434.86 64.6,436.58 49.61,436.89 34.63,436.18 16.76,434.08 2,431.42" fill="none" stroke="#111111" stroke-width="0.5"/><polyline id="SvgjsPolyline3709" points="371.4,364.87 373.51,366.99 374.82,369.68 375.16,372.65 374.52,375.58 373.12,378.22 371.17,380.5 366.35,384.05 360.9,386.53 352.22,388.89 343.32,390.2 334.35,390.87 322.35,390.94 313.36,390.45 301.43,389.16 292.55,387.75 260.24,381.05 254.26,380.62 248.29,381.1 239.58,383.35 233.97,385.47 196.5,404.42 182.82,410.58 168.93,416.25 152.03,422.44 137.78,427.1 120.47,432.07 105.89,435.58 91.16,438.4 79.28,440.05 67.32,441.08 55.33,441.43 40.34,440.92 28.4,439.78 16.52,438.09 1.78,435.3" fill="none" stroke="#111111" stroke-width="0.5"/><polyline id="SvgjsPolyline3710" points="363.71,364.45 366.45,363.33 369.4,363.84 371.94,365.42 373.82,367.75 374.79,370.58 374.72,373.57 373.7,376.39 372,378.85 369.84,380.93 364.76,384.1 359.17,386.26 350.4,388.22 341.46,389.26 332.47,389.6 320.48,389.05 311.57,387.84 302.82,385.76 297.2,383.66 292.02,380.66 289.74,378.72 287.75,376.47 284.72,371.31 282.53,365.72 269.59,325.77 267.32,317.06 266.25,311.16 265.69,305.18 265.61,299.19 266.1,293.21 267.42,287.36 268.4,284.53 270.98,279.12 274.27,274.11 278.14,269.52 282.46,265.36 287.11,261.58 294.57,256.54 305.14,250.88 316.21,246.25 327.63,242.58 339.3,239.81 354.13,237.61 366.11,236.9 378.11,237.03 390.08,237.89 399.01,238.94 410.87,240.79 422.65,243.08 446,248.6 501.1,263.2 518.66,267.15 533.41,269.86 551.25,272.23 566.21,273.38 581.2,273.77 599.19,273.29" fill="none" stroke="#111111" stroke-width="0.5"/><polyline id="SvgjsPolyline3711" points="567.55,599.31 562.3,588.53 558.94,580.18 557.1,574.47 555.04,565.71 554,556.78 554.02,550.78 554.72,544.82 556.15,539 558.33,533.42 561.21,528.16 564.68,523.26 570.73,516.61 575.18,512.59 582.28,507.06 589.75,502.04 597.48,497.43" fill="none" stroke="#111111" stroke-width="0.5"/><polyline id="SvgjsPolyline3712" points="560.18,597.94 555.56,590.22 550.07,579.56 545.43,568.49 542.66,559.93 540.53,551.19 539.33,542.28 539.33,536.28 539.63,533.3 540.93,527.45 543.19,521.89 546.31,516.78 550.11,512.14 556.67,505.99 563.87,500.59 574.02,494.2 584.55,488.44 598.03,481.87" fill="none" stroke="#111111" stroke-width="0.5"/><polyline id="SvgjsPolyline3713" points="557.52,599.06 550.92,589.04 543.44,576.04 536.84,562.57 532.36,551.44 529.73,542.84 528.21,533.98 528.11,524.99 529.25,519.11 531.68,513.64 535.2,508.79 539.45,504.56 546.59,499.09 556.82,492.82 567.44,487.24 580.99,480.82 597.51,473.67" fill="none" stroke="#111111" stroke-width="0.5"/><polyline id="SvgjsPolyline3714" points="555.29,598.5 546.86,586.1 539.1,573.27 531.92,560.1 525.34,546.62 520.69,535.56 517.98,526.98 517.06,521.06 517.14,518.07 517.72,515.13 519.93,509.56 521.5,507 523.41,504.7 527.91,500.73 535.45,495.82 546.07,490.24 559.68,483.95 579.01,475.75 598.52,467.98" fill="none" stroke="#111111" stroke-width="0.5"/><polyline id="SvgjsPolyline3715" points="540.82,599.52 523.98,582.42 515.28,574.15 506.12,566.4 496.3,559.51 491.11,556.52 485.71,553.89 477.31,550.68 468.62,548.35 456.77,546.5 441.8,545.7 420.81,546.39 396.91,548.5 319.39,557.19 274.57,561.15 250.63,562.85 226.66,564.06 208.67,564.51 190.67,564.49 169.68,563.83 148.72,562.47 127.82,560.48 106.97,557.97 80.24,554.14 50.65,549.23 24.13,544.16 0.7,538.97" fill="none" stroke="#111111" stroke-width="0.5"/><polyline id="SvgjsPolyline3716" points="549.33,599.25 521.13,564.18 510.96,553.16 504.33,547.08 497.06,541.79 489.09,537.63 480.55,534.81 471.69,533.26 465.71,532.8 456.71,532.75 447.73,533.24 435.79,534.44 417.96,536.88 364.62,545.34 337.91,549.27 314.11,552.36 287.27,555.3 263.36,557.38 236.43,559.24 215.45,560.22 194.46,560.66 173.46,560.45 149.48,559.38 125.56,557.47 98.73,554.45 72,550.65 45.39,546.12 21.86,541.36 1.45,536.43" fill="none" stroke="#111111" stroke-width="0.5"/><polyline id="SvgjsPolyline3717" points="552.45,598.19 541.91,583.6 518.6,548.67 513.17,541.49 509.22,536.98 502.49,531.02 494.74,526.47 489.16,524.27 486.26,523.52 480.33,522.63 474.34,522.39 468.34,522.61 459.39,523.51 450.49,524.82 368,540.69 338.42,545.66 311.69,549.51 287.87,552.38 260.99,554.95 231.06,557.05 204.09,558.2 180.09,558.43 156.1,557.8 132.15,556.32 105.28,553.7 78.5,550.2 48.9,545.33 22.46,539.9 2.12,534.69" fill="none" stroke="#111111" stroke-width="0.5"/><polyline id="SvgjsPolyline3718" points="364.46,368.48 362.97,365.91 364.86,363.66 367.82,363.37 370.63,364.39 372.93,366.31 374.49,368.87 375.09,371.8 374.69,374.76 373.45,377.49 371.62,379.86 369.39,381.86 366.9,383.54 361.49,386.1 352.83,388.52 343.93,389.85 334.96,390.52 322.96,390.54 310.99,389.66 302.08,388.43 293.25,386.66 284.59,384.25 276.25,380.88 271.15,377.74 266.83,373.6 265.05,371.18 262.13,365.94 252.29,344.06 241.74,322.5 237.28,311.37 235.82,305.55 235.43,302.58 235.53,296.59 236.95,290.77 238.11,288.01 241.17,282.86 244.92,278.18 249.14,273.91 253.67,269.98 260.89,264.62 273.69,256.8 281.69,252.68 289.88,248.95 306.72,242.62 324.06,237.79 332.87,235.96 341.76,234.55 350.7,233.55 359.68,233 371.68,232.97 383.66,233.64 398.56,235.32 413.36,237.77 439.72,243.59 503.6,260.18 518.26,263.38 533.02,266.05 550.86,268.38 565.82,269.52 580.81,269.9 598.8,269.43" fill="none" stroke="#111111" stroke-width="0.5"/><polyline id="SvgjsPolyline3719" points="370.08,367.03 368,369.1 365.04,368.8 363,366.63 364.26,363.97 367.15,363.29 370.04,364.06 372.48,365.8 374.23,368.23 375.08,371.09 374.93,374.08 373.88,376.89 372.18,379.35 370.04,381.45 367.62,383.22 362.27,385.92 353.66,388.5 344.78,389.93 332.82,390.8 323.82,390.82 311.84,390.11 302.9,389.07 291.08,387.01 282.32,384.96 270.83,381.5 245.77,371.48 242.85,370.82 239.85,370.68 236.9,371.17 234.09,372.21 226.31,376.71 209.81,389.7 199.9,396.46 192.16,401.06 181.54,406.64 167.91,412.89 151.18,419.51 134.13,425.3 116.83,430.26 102.23,433.69 87.47,436.37 72.58,438.16 60.61,438.88 45.61,438.83 30.65,437.77 15.78,435.8 1.04,433.05" fill="none" stroke="#111111" stroke-width="0.5"/><polyline id="SvgjsPolyline3720" points="368.49,368.94 365.52,368.99 363.18,367.15 363.85,364.29 366.64,363.29 369.58,363.86 372.11,365.45 373.99,367.78 375,370.6 375.01,373.59 374.09,376.44 372.48,378.96 370.4,381.12 365.43,384.45 359.9,386.77 354.12,388.37 348.22,389.43 339.27,390.42 330.28,390.81 321.28,390.68 312.31,390.08 303.37,389.02 294.49,387.52 285.71,385.55 277.07,383.05 268.66,379.86 263.29,377.19 258.29,373.88 256,371.94 251.93,367.55 239.72,350.46 236.02,345.74 232.04,341.25 227.71,337.1 222.98,333.41 217.75,330.49 214.93,329.49 211.98,328.92 208.99,328.89 206.04,329.41 203.23,330.47 198.24,333.76 194.08,338.07 190.66,343 187.9,348.32 185.7,353.9 180.81,371.22 178.89,376.9 176.4,382.36 173.22,387.44 171.38,389.81 167.3,394.21 160.4,399.97 152.89,404.92 142.3,410.55 134.07,414.2 125.67,417.44 108.51,422.85 90.98,426.93 73.19,429.63 55.24,430.87 37.25,430.61 19.33,428.9 1.6,425.87" fill="none" stroke="#111111" stroke-width="0.5"/><polyline id="SvgjsPolyline3721" points="368.59,368.9 365.61,369.02 363.22,367.24 363.77,364.35 366.54,363.29 369.48,363.82 372.03,365.39 373.94,367.69 374.99,370.5 375.03,373.49 374.15,376.35 372.56,378.89 370.49,381.06 368.11,382.88 365.53,384.41 360.01,386.75 354.23,388.36 348.33,389.44 336.4,390.63 321.4,390.72 306.46,389.49 294.6,387.62 285.81,385.7 274.29,382.37 265.89,379.15 257.86,375.09 252.88,371.74 248.3,367.87 237.59,357.38 232.86,353.69 230.28,352.17 227.51,351.01 224.58,350.37 218.6,350.49 215.7,351.24 213.05,352.64 210.75,354.55 208.78,356.81 205.64,361.92 199.32,375.52 196.33,380.72 190.86,387.86 184.38,394.09 174.71,401.18 164.33,407.2 150.78,413.63 136.83,419.13 119.71,424.68 102.28,429.16 84.59,432.46 69.69,434.2 54.71,434.93 36.73,434.46 18.83,432.58 1.1,429.48" fill="none" stroke="#111111" stroke-width="0.5"/><polyline id="SvgjsPolyline3722" points="579.24,599.31 576.06,587.74 574.82,578.84 574.87,569.84 576.37,560.98 579.34,552.49 582.08,547.16 585.35,542.13 591.07,535.19 599.83,527.01" fill="none" stroke="#111111" stroke-width="0.5"/><polyline id="SvgjsPolyline3723" points="572.41,599.89 568.93,591.59 567.09,585.88 565.67,580.05 564.73,574.13 564.35,568.14 564.59,562.15 566.78,550.36 568.72,544.69 571.32,539.29 574.49,534.2 578.15,529.44 582.2,525.02 586.56,520.9 593.54,515.23 598.43,511.75" fill="none" stroke="#111111" stroke-width="0.5"/><polyline id="SvgjsPolyline3724" points="524.19,599 512.33,589.81 502.51,582.92 494.88,578.15 484.28,572.54 476.01,568.98 464.63,565.19 452.95,562.47 441.08,560.7 423.13,559.44 399.13,559.5 369.18,561.04 285.4,567.13 252.45,569.05 219.47,569.91 201.47,569.77 186.48,569.28 171.5,568.43 150.58,566.64 132.69,564.59 111.89,561.75 85.21,557.59 55.64,552.54 26.15,547.05 2.64,542.22" fill="none" stroke="#111111" stroke-width="0.5"/><polyline id="SvgjsPolyline3725" points="369.49,368.27 366.69,369.22 363.93,368.09 363.15,365.24 365.49,363.45 368.48,363.5 371.2,364.74 373.35,366.82 374.72,369.48 375.11,372.45 374.52,375.38 373.14,378.04 371.21,380.33 368.92,382.27 363.73,385.24 358.1,387.31 352.27,388.71 343.36,390 334.39,390.65 325.39,390.74 316.4,390.33 304.47,389.05 292.66,386.94 283.93,384.75 275.41,381.86 269.95,379.38 264.87,376.2 262.57,374.28 258.62,369.77 255.43,364.7 248.37,351.46 242.25,341.14 221.95,311.42 219.16,306.11 218.19,303.28 217.77,300.31 218.07,297.33 219.05,294.51 222.27,289.46 226.28,285.01 230.68,280.93 237.69,275.28 245.02,270.06 255.16,263.65 262.99,259.22 273.69,253.79 284.65,248.91 293.03,245.61 304.37,241.7 313.01,239.17 321.74,236.98 333.51,234.65 342.41,233.35 351.37,232.47 363.35,231.96 378.34,232.37 393.28,233.78 411.06,236.53 437.45,242.23 504.26,259.48 521.86,263.22 536.65,265.72 551.54,267.56 566.5,268.65 581.49,269 599.48,268.48" fill="none" stroke="#111111" stroke-width="0.5"/><polyline id="SvgjsPolyline3726" points="369.24,368.5 366.36,369.19 363.68,367.86 363.3,364.94 365.81,363.37 368.79,363.58 371.46,364.93 373.55,367.08 374.82,369.78 375.11,372.76 374.43,375.68 372.99,378.3 371.02,380.56 366.17,384.06 360.69,386.5 354.94,388.19 349.05,389.32 340.11,390.36 325.12,390.81 310.16,389.88 295.32,387.71 283.62,385.06 275,382.45 266.64,379.15 261.3,376.4 256.34,373.04 251.93,368.98 238.83,352.58 234.75,348.18 230.25,344.22 225.2,340.99 222.44,339.82 219.53,339.08 216.54,338.9 213.58,339.35 207.96,341.42 205.38,342.94 203.07,344.86 199.26,349.47 197.71,352.04 195.18,357.48 190.33,371.67 186.78,379.93 183.68,385.06 177.91,391.96 171.15,397.89 163.76,403.02 153.3,408.89 142.41,413.93 125.57,420.27 108.31,425.36 90.74,429.23 72.92,431.79 54.96,432.91 36.97,432.54 19.07,430.75 1.33,427.69" fill="none" stroke="#111111" stroke-width="0.5"/><polyline id="SvgjsPolyline3727" points="371.97,365.34 373.9,367.63 374.96,370.43 375.03,373.42 374.16,376.28 372.58,378.82 370.52,381 365.56,384.36 360.04,386.7 354.27,388.31 345.39,389.79 336.43,390.58 327.43,390.79 318.44,390.5 309.47,389.73 300.56,388.52 291.72,386.84 282.99,384.64 274.45,381.79 268.96,379.39 263.77,376.38 259.17,372.54 257.17,370.31 253.71,365.41 244.58,349.9 237.83,339.99 230.25,330.68 226.13,326.33 221.69,322.3 216.74,318.92 213.98,317.75 211.03,317.21 205.06,317.6 202.19,318.46 199.53,319.83 194.8,323.51 188.87,330.26 184.04,337.85 181.39,343.23 178.24,351.66 173.1,372.01 171.27,377.72 168.83,383.2 165.68,388.3 161.87,392.93 155.22,398.98 147.84,404.12 140,408.54 126.32,414.69 117.87,417.78 109.29,420.49 91.83,424.83 74.07,427.73 56.13,429.14 38.13,429.02 20.21,427.43 2.46,424.46" fill="none" stroke="#111111" stroke-width="0.5"/><polyline id="SvgjsPolyline3728" points="590.2,598.11 589.74,592.13 589.81,586.14 591.24,577.26 594.22,568.78 598.58,560.92" fill="none" stroke="#111111" stroke-width="0.5"/><polyline id="SvgjsPolyline3729" points="583.22,599.34 581.5,590.52 581.13,584.53 581.42,578.54 583.17,569.73 585.19,564.08 589.37,556.12 592.81,551.2 598.56,544.28" fill="none" stroke="#111111" stroke-width="0.5"/><polyline id="SvgjsPolyline3730" points="505.47,599.07 495.16,592.95 487.21,588.71 476.33,583.67 467.94,580.4 456.5,576.78 447.77,574.62 438.94,572.89 427.06,571.21 406.12,569.62 382.13,569.24 352.14,569.95 283.21,573.16 250.23,574.19 214.23,574.19 181.27,572.76 151.4,570 118.72,565.41 56.66,554.57 0.7,543.76" fill="none" stroke="#111111" stroke-width="0.5"/><polyline id="SvgjsPolyline3731" points="206.25,300.61 203.38,302.72 201.25,304.84 191.48,316.2 184.58,326.02 180.1,333.82 176.33,341.99 173.38,350.49 168.56,370.92 166.9,376.69 164.67,382.25 161.72,387.47 158.06,392.22 153.84,396.48 149.2,400.28 141.7,405.25 136.45,408.16 128.33,412.02 119.98,415.39 111.47,418.32 102.84,420.85 91.17,423.64 73.42,426.59 55.48,428.01 37.48,427.88 19.56,426.26 1.82,423.23" fill="none" stroke="#111111" stroke-width="0.5"/><polyline id="SvgjsPolyline3732" points="2.7,212.29 14.58,210.67 23.56,210.06 32.56,210 44.53,210.8 56.4,212.56 68.11,215.18 79.62,218.54 90.94,222.53 102.05,227.06 112.96,232.06 123.66,237.49 134.16,243.3 144.44,249.48 157,257.68 191.05,282.26 196.27,285.22 199.07,286.29 202,286.88 205,286.91 207.96,286.45 216.51,283.69 224.49,279.53 245.11,267.25 260.92,258.65 277.2,250.99 293.95,244.4 311.12,239.01 325.71,235.54 340.51,233.1 355.44,231.76 367.44,231.55 382.42,232.28 397.32,233.94 412.13,236.37 438.5,242.13 502.39,258.67 519.99,262.47 534.76,265.05 549.64,266.97 567.58,268.3 582.58,268.59 597.57,268.17" fill="none" stroke="#111111" stroke-width="0.5"/><polyline id="SvgjsPolyline3733" points="482.03,599 465.4,592.11 456.88,589.2 448.24,586.68 430.68,582.76 409.89,579.83 388.95,578.27 361.96,577.56 331.97,577.69 268.97,578.69 232.97,578.62 202.99,577.73 176.05,576 149.2,573.14 122.51,569.05 1.71,545.9" fill="none" stroke="#111111" stroke-width="0.5"/><polyline id="SvgjsPolyline3734" points="2.18,213.1 14.06,211.46 26.04,210.75 38.03,211.03 49.96,212.29 64.68,215.15 76.25,218.33 90.43,223.22 104.28,228.98 120.45,236.87 138.69,247.27 153.73,257.16 168.14,267.93 179.56,277.66 187.97,286.2 191.42,291.1 192.55,293.88 193.37,299.81 193.07,302.78 191.01,308.41 179.17,329.27 175.27,337.38 173.05,342.95 169.57,354.43 164.91,374.9 161.67,383.29 158.61,388.44 152.76,395.27 148.24,399.21 140.86,404.35 135.66,407.33 127.57,411.29 119.25,414.72 110.76,417.69 93.4,422.41 75.69,425.61 57.77,427.27 39.78,427.37 21.84,425.95 9.97,424.2 1.13,422.48" fill="none" stroke="#111111" stroke-width="0.5"/><polyline id="SvgjsPolyline3735" points="0.54,200.97 9.32,198.96 18.18,197.41 27.12,196.38 36.11,195.98 42.11,196.08 51.08,196.79 59.98,198.13 68.78,200.01 83.2,204.1 102.97,211.19 119.63,218.01 160.88,235.98 177.62,242.58 186.16,245.45 194.83,247.85 200.69,249.12 209.6,250.41 218.58,250.91 224.58,250.79 233.54,250 242.43,248.62 257.09,245.42 297.78,235.03 312.44,231.89 324.27,229.84 333.19,228.63 345.13,227.53 357.12,227.05 366.12,227.13 378.1,227.8 390.04,229.02 401.91,230.73 416.67,233.44 440.07,238.75 501.1,254.39 518.7,258.16 533.47,260.73 551.33,262.95 566.29,264.01 581.29,264.34 599.28,263.81" fill="none" stroke="#111111" stroke-width="0.5"/><polyline id="SvgjsPolyline3736" points="1.23,206.77 10.1,205.22 19.04,204.16 28.02,203.66 37.02,203.75 45.99,204.43 54.9,205.67 63.73,207.43 72.46,209.62 81.08,212.19 92.43,216.1 111.89,223.98 130.94,232.8 171.19,252.93 184.89,259.02 196.26,262.84 202.12,264.13 208.07,264.88 214.07,265.02 220.05,264.57 225.97,263.61 234.7,261.44 246.11,257.73 285.62,243.5 299.97,239.11 314.5,235.41 329.22,232.54 341.11,230.92 353.07,229.98 365.07,229.75 377.06,230.22 389.01,231.3 400.9,232.9 415.67,235.52 439.09,240.76 503,257.21 517.66,260.38 532.43,263.03 547.29,265.04 565.23,266.49 583.22,266.88 598.21,266.42" fill="none" stroke="#111111" stroke-width="0.5"/><polyline id="SvgjsPolyline3737" points="450.71,599.36 433.34,594.65 415.69,591.14 397.86,588.67 376.94,586.82 361.97,585.99 337.98,585.25 259.98,584.44 223.99,583.58 191.04,581.93 158.17,579.03 134.38,575.84 116.65,572.72 52.15,558.77 2.12,548.85" fill="none" stroke="#111111" stroke-width="0.5"/><polyline id="SvgjsPolyline3738" points="1.37,224.86 13.26,223.23 25.24,222.5 37.23,222.77 49.16,224.04 60.94,226.28 72.52,229.44 86.61,234.56 97.52,239.55 110.61,246.86 120.53,253.61 129.76,261.27 136.05,267.7 141.55,274.82 145.89,282.69 147.91,288.33 148.62,291.25 149.12,294.21 149.48,300.19 149.12,306.18 147.57,315.04 139.81,344.01 137.94,352.82 134.89,370.56 132.66,379.27 130.37,384.81 127.26,389.93 123.39,394.51 118.92,398.51 114.02,401.97 108.83,404.98 103.43,407.59 95.06,410.89 80.64,414.99 65.88,417.61 50.94,418.89 41.94,419.04 32.95,418.73 23.98,417.98 15.06,416.78 0.37,413.77" fill="none" stroke="#111111" stroke-width="0.5"/><polyline id="SvgjsPolyline3739" points="1.9,217.66 16.79,215.88 28.78,215.52 40.76,216.15 52.65,217.75 64.38,220.25 78.76,224.5 92.77,229.86 106.37,236.19 119.49,243.45 132.03,251.67 141.51,259.03 150.26,267.23 158,276.39 162.77,284.01 165.06,289.55 165.86,292.44 166.4,295.39 166.68,301.38 166.03,307.34 164.71,313.19 157.23,335.99 153.95,347.53 149.33,371.08 146.94,379.75 144.53,385.23 141.34,390.31 137.43,394.86 130.6,400.7 125.61,404.02 117.69,408.29 112.21,410.75 103.8,413.93 89.39,418.1 80.59,419.98 71.71,421.43 62.77,422.45 53.79,423.04 44.79,423.21 35.8,422.97 26.82,422.33 17.88,421.28 9,419.85 0.19,418.01" fill="none" stroke="#111111" stroke-width="0.5"/><polyline id="SvgjsPolyline3740" points="1.01,215.01 15.87,213.06 27.86,212.55 39.85,213.02 54.71,214.98 69.33,218.31 80.81,221.82 94.84,227.11 108.51,233.27 124.41,241.7 139.68,251.23 151.8,260.06 163.13,269.88 167.32,274.17 171.19,278.76 174.54,283.73 175.92,286.39 177.03,289.18 178.58,294.97 179.08,300.94 178.26,306.87 176.57,312.63 167.54,334.86 163.72,346.23 161.53,354.96 157.96,372.6 155.23,381.17 152.55,386.53 149.12,391.44 145.05,395.85 138.08,401.53 133.04,404.79 125.12,409.05 116.88,412.67 108.44,415.78 99.83,418.41 91.11,420.63 82.29,422.43 73.4,423.82 64.46,424.82 55.48,425.41 37.48,425.4 19.56,423.82 1.83,420.76" fill="none" stroke="#111111" stroke-width="0.5"/><polyline id="SvgjsPolyline3741" points="0.8,189.05 17.94,183.54 26.7,181.5 32.62,180.53 41.58,179.78 47.58,179.82 53.56,180.3 62.43,181.8 73.99,185.02 88.02,190.3 142.95,214.45 168.03,224.44 179.38,228.32 190.91,231.66 199.67,233.7 211.51,235.66 226.46,236.77 235.46,236.73 244.44,236.21 262.31,234.09 303.74,227.16 324.55,224.36 336.5,223.3 348.49,222.76 357.48,222.72 369.47,223.2 381.43,224.22 393.33,225.72 416.96,229.92 443.27,236 495.58,249.37 513.16,253.26 530.87,256.46 545.74,258.45 563.67,259.91 581.67,260.33 599.66,259.76" fill="none" stroke="#111111" stroke-width="0.5"/><polyline id="SvgjsPolyline3742" points="393.67,599.8 372.83,597.26 348.91,595.28 315.95,593.58 246.99,591.18 214.03,589.68 175.13,586.97 145.29,583.88 121.52,580.52 100.87,576.71 83.33,572.68 39.73,561.57 1.58,553.48" fill="none" stroke="#111111" stroke-width="0.5"/><polyline id="SvgjsPolyline3743" points="0.46,236.67 12.34,234.99 21.32,234.41 33.31,234.63 42.26,235.56 54.05,237.82 62.7,240.27 73.92,244.53 82,248.49 89.71,253.12 96.94,258.47 103.53,264.6 109.23,271.55 113.72,279.34 115.89,284.93 117.32,290.75 118.11,299.7 117.85,305.7 116.61,314.61 109.09,346.73 104.87,370.36 103.47,376.19 101.42,381.83 98.52,387.07 96.72,389.47 92.52,393.75 85.15,398.88 79.78,401.55 74.19,403.72 62.6,406.82 50.74,408.55 41.75,409.06 35.75,409.04 23.79,408.17 11.96,406.15 0.43,402.86" fill="none" stroke="#111111" stroke-width="0.5"/><polyline id="SvgjsPolyline3744" points="2.86,227.92 14.78,226.63 26.78,226.34 38.75,227.11 47.66,228.37 59.37,230.95 70.83,234.51 81.95,239.01 92.63,244.46 102.75,250.91 109.83,256.46 114.23,260.54 118.29,264.95 123.69,272.15 128.15,279.95 130.31,285.55 131.73,291.37 132.45,300.33 132.12,306.32 130.75,315.21 123.06,347.3 119.5,367.99 117.57,376.78 115.57,382.43 112.74,387.72 109.07,392.45 104.7,396.55 99.82,400.05 94.6,403 89.15,405.5 83.53,407.6 71.97,410.8 63.12,412.44 57.17,413.2 42.2,414.03 27.22,413.4 12.37,411.31 0.71,408.52" fill="none" stroke="#111111" stroke-width="0.5"/><polyline id="SvgjsPolyline3745" points="0.1,177.52 8.12,173.44 16.34,169.77 24.83,166.79 33.56,164.61 42.45,163.26 51.43,162.72 60.43,163.01 66.39,163.69 72.28,164.78 78.09,166.31 83.75,168.28 89.24,170.69 97.17,174.95 117.58,187.58 127.97,193.57 143.98,201.79 157.65,207.96 168.79,212.43 182.96,217.33 197.42,221.34 209.16,223.78 218.07,225.1 227.02,225.97 236.01,226.4 248.01,226.35 265.97,225.23 307.72,220.64 328.65,218.89 349.63,218.34 358.63,218.57 370.6,219.35 391.46,221.8 403.3,223.75 418.01,226.65 438.48,231.36 493.74,245.32 511.32,249.2 526.07,251.93 543.89,254.42 561.82,255.94 579.82,256.42 597.81,255.92" fill="none" stroke="#111111" stroke-width="0.5"/><polyline id="SvgjsPolyline3746" points="192.26,599.86 153.52,595.38 129.72,592.29 103,588.39 82.29,584.91 64.62,581.48 47.07,577.49 0.7,565.09" fill="none" stroke="#111111" stroke-width="0.5"/><polyline id="SvgjsPolyline3747" points="2.67,247.98 8.58,246.97 17.54,246.12 26.53,246.08 35.5,246.87 44.34,248.49 52.99,250.97 61.33,254.34 66.66,257.11 74.16,262.06 78.74,265.94 82.87,270.28 86.45,275.09 89.36,280.33 91.52,285.93 92.89,291.76 93.53,300.73 93.17,306.72 91.77,315.6 83.48,347.54 78.39,370.99 76.53,376.69 75.3,379.43 72.08,384.47 70.08,386.71 65.44,390.5 62.88,392.06 57.43,394.56 48.78,397 39.86,398.17 33.87,398.32 27.88,398.01 18.99,396.64 10.36,394.11 2.28,390.17" fill="none" stroke="#111111" stroke-width="0.5"/><polyline id="SvgjsPolyline3748" points="2.29,238.7 14.21,237.4 23.21,237.2 32.19,237.69 41.11,238.88 49.91,240.77 58.52,243.38 66.88,246.71 74.89,250.79 82.44,255.68 87.13,259.42 93.47,265.8 97.1,270.58 100.11,275.76 102.4,281.3 104.8,289.97 105.73,298.91 105.26,307.89 103.82,316.77 96.7,345.91 91.53,372.41 89.78,378.14 87.22,383.56 85.58,386.08 81.6,390.56 79.32,392.5 74.32,395.81 66.13,399.51 57.49,401.99 51.59,403.08 45.63,403.77 33.64,404.07 21.7,402.97 9.98,400.4 1.52,397.35" fill="none" stroke="#111111" stroke-width="0.5"/><polyline id="SvgjsPolyline3749" points="0.23,164.5 8.4,160.73 16.88,157.73 25.58,155.42 37.38,153.29 49.32,152.11 61.31,151.82 73.3,152.43 82.23,153.53 91.06,155.24 99.73,157.65 108.12,160.9 113.48,163.58 121.1,168.37 137.65,181.29 147.44,188.22 157.75,194.35 168.48,199.73 179.53,204.41 190.84,208.4 202.37,211.71 214.09,214.3 222.97,215.75 231.91,216.8 240.88,217.45 252.88,217.78 270.87,217.34 312.78,214.64 330.77,213.92 348.77,214.01 369.72,215.41 390.54,218.07 414.15,222.4 434.63,227.02 495.77,242.24 513.37,245.98 528.14,248.57 545.99,250.89 563.94,252.23 581.93,252.55 599.92,251.92" fill="none" stroke="#111111" stroke-width="0.5"/><polyline id="SvgjsPolyline3750" points="101.22,599.77 0.72,582.34" fill="none" stroke="#111111" stroke-width="0.5"/><polyline id="SvgjsPolyline3751" points="2.01,259.86 10.85,258.22 16.83,257.67 22.82,257.62 28.81,258.07 37.65,259.72 43.38,261.48 48.9,263.81 54.14,266.73 58.99,270.27 63.3,274.43 65.22,276.73 68.46,281.78 69.75,284.48 71.64,290.17 72.6,296.09 72.72,302.08 71.64,311.01 69.5,319.75 66.72,328.31 59.55,348.04 53.93,365.14 51.64,370.69 50.2,373.32 48.48,375.77 46.44,377.97 44.11,379.85 41.52,381.37 38.76,382.52 32.9,383.78 29.91,383.92 23.95,383.31 18.24,381.49 13.09,378.44 8.8,374.27 5.46,369.3 0.34,358.45" fill="none" stroke="#111111" stroke-width="0.5"/><polyline id="SvgjsPolyline3752" points="0.46,249.69 6.37,248.71 15.34,247.93 21.34,247.88 30.31,248.53 36.23,249.46 44.97,251.62 53.4,254.75 58.78,257.4 63.89,260.54 68.65,264.19 72.96,268.36 76.68,273.07 79.68,278.25 81.86,283.83 83.2,289.68 83.72,295.65 83.24,304.63 81.64,313.48 79.35,322.19 72.41,345.16 66.51,368.42 64.56,374.09 63.28,376.81 59.92,381.76 57.83,383.91 52.95,387.38 50.27,388.72 44.6,390.66 35.71,392.02 26.73,391.77 17.92,389.96 12.33,387.81 7.16,384.77 4.82,382.91 0.77,378.49" fill="none" stroke="#111111" stroke-width="0.5"/><polyline id="SvgjsPolyline3753" points="0.97,151.36 12.52,148.11 24.26,145.62 36.12,143.8 51.05,142.41 63.04,141.97 75.04,142.15 90,143.26 101.88,144.89 113.65,147.23 122.35,149.52 130.9,152.34 139.21,155.79 147.16,160 152.19,163.27 159.3,168.78 173.04,180.4 177.88,183.95 185.5,188.73 193.5,192.85 204.6,197.41 213.16,200.19 224.79,203.12 233.63,204.79 242.54,206.04 260.48,207.49 278.48,207.9 314.47,207.54 332.47,207.71 350.45,208.59 368.37,210.26 389.16,213.18 412.75,217.63 436.14,222.97 494.4,237.31 509.08,240.43 523.84,243.09 544.65,245.87 562.6,247.21 580.59,247.55 598.58,246.95" fill="none" stroke="#111111" stroke-width="0.5"/><polyline id="SvgjsPolyline3754" points="1.93,153.82 13.48,150.59 22.29,148.72 34.14,146.87 46.08,145.72 58.07,145.25 70.07,145.46 79.05,146.09 90.95,147.6 99.79,149.29 108.5,151.53 117.02,154.44 125.21,158.15 130.41,161.14 135.36,164.53 153.8,179.89 160.99,185.3 168.56,190.16 179.16,195.79 187.39,199.41 198.67,203.5 207.3,206.05 218.99,208.76 227.86,210.29 236.79,211.42 254.74,212.6 275.74,212.58 314.71,211.1 329.71,210.84 347.7,211.23 368.64,212.84 389.45,215.61 413.05,219.98 433.53,224.59 494.69,239.72 512.3,243.45 527.07,246.05 544.92,248.38 562.86,249.75 580.86,250.1 598.85,249.51" fill="none" stroke="#111111" stroke-width="0.5"/><polyline id="SvgjsPolyline3755" points="34.26,599.8 1.65,594.75" fill="none" stroke="#111111" stroke-width="0.5"/><polyline id="SvgjsPolyline3756" points="2.09,271.79 7.87,270.18 13.77,269.14 22.76,269.01 25.74,269.34 31.6,270.61 37.22,272.7 39.89,274.06 42.44,275.64 47.05,279.47 50.79,284.15 52.26,286.76 54.31,292.39 54.88,295.33 55.19,301.31 54.52,307.27 53.08,313.09 51.06,318.74 47.18,326.86 42.52,334.55 37.13,341.75 33.01,346.11 28.2,349.68 25.45,350.87 22.51,351.39 19.53,351.15 16.68,350.23 14.02,348.83 9.24,345.22 4.96,341.02 1.02,336.49" fill="none" stroke="#111111" stroke-width="0.5"/><polyline id="SvgjsPolyline3757" points="1.49,260.56 7.39,259.45 13.35,258.85 19.35,258.77 25.33,259.22 31.25,260.22 37.04,261.78 45.31,265.29 50.41,268.45 54.99,272.31 57.04,274.51 60.51,279.39 61.9,282.05 63.9,287.69 64.52,290.63 65.03,296.6 64.69,302.59 62.94,311.41 60.16,319.97 56.72,328.28 46.34,349.92 40.82,360.57 37.48,365.55 35.45,367.75 33.07,369.58 30.37,370.85 27.43,371.45 24.44,371.34 21.55,370.55 18.88,369.21 16.46,367.44 14.28,365.37 10.49,360.73 0.53,345.74" fill="none" stroke="#111111" stroke-width="0.5"/><polyline id="SvgjsPolyline3758" points="0.51,139.44 18.14,135.77 32.95,133.44 47.86,131.77 62.83,130.84 77.82,130.67 92.81,131.28 107.74,132.67 122.59,134.79 140.25,138.26 154.79,141.93 169.12,146.38 180.34,150.62 188.55,154.3 199.09,160.04 206.61,164.97 221.24,175.46 231.57,181.54 237.01,184.08 245.43,187.24 259.92,191.11 268.76,192.78 280.64,194.45 346.38,200.32 364.25,202.47 382.04,205.18 399.75,208.43 420.28,212.82 478.58,227 496.13,230.99 513.79,234.48 528.6,236.86 543.49,238.66 561.44,239.95 579.44,240.27 597.42,239.67" fill="none" stroke="#111111" stroke-width="0.5"/><polyline id="SvgjsPolyline3759" points="0.3,144.23 14.96,141.04 29.76,138.65 44.68,137.05 56.65,136.34 71.65,136.21 83.64,136.71 98.57,138.11 110.44,139.86 122.21,142.2 133.84,145.17 145.24,148.89 153.57,152.3 161.6,156.36 169.3,161.01 176.59,166.29 192.9,179.51 203,185.97 211.07,189.94 219.45,193.23 228.04,195.9 236.79,198.02 251.57,200.54 266.49,202.05 281.47,202.85 332.45,204.29 350.4,205.54 368.3,207.46 389.07,210.55 412.63,215.1 436.02,220.46 488.46,233.38 508.99,237.78 523.76,240.4 541.59,242.81 562.53,244.42 580.52,244.74 598.51,244.12" fill="none" stroke="#111111" stroke-width="0.5"/><polyline id="SvgjsPolyline3760" points="0.97,285.2 3.56,283.69 9.07,281.33 14.9,279.98 20.89,279.96 26.73,281.3 32.05,284.03 34.37,285.93 36.37,288.16 37.99,290.68 39.18,293.43 39.93,296.33 40.23,299.31 40.13,302.31 38.85,308.16 37.75,310.95 34.79,316.16 30.88,320.69 28.57,322.61 26.03,324.2 23.28,325.39 20.36,326.05 17.37,326.13 14.41,325.62 11.6,324.6 6.56,321.38 4.35,319.35 0.6,314.68" fill="none" stroke="#111111" stroke-width="0.5"/><polyline id="SvgjsPolyline3761" points="2.79,269.17 11.64,267.58 20.63,267.59 26.55,268.51 29.45,269.27 35.05,271.4 37.71,272.8 42.59,276.27 44.74,278.36 48.3,283.17 50.66,288.67 51.36,291.59 51.83,297.56 51.23,303.52 49.74,309.33 47.56,314.92 44.81,320.25 41.53,325.27 37.73,329.91 33.3,333.95 30.8,335.6 28.09,336.88 22.3,338.42 19.31,338.6 16.34,338.19 13.5,337.25 8.31,334.27 5.95,332.41 1.67,328.21" fill="none" stroke="#111111" stroke-width="0.5"/><polyline id="SvgjsPolyline3762" points="0.89,127.53 21.43,123.16 39.15,120.01 54.01,117.96 68.95,116.6 83.94,116.07 98.93,116.45 113.87,117.71 128.74,119.73 146.45,122.93 166.97,127.39 190.27,133.15 213.41,139.49 230.64,144.71 244.86,149.48 256.1,153.67 272.77,160.47 281.24,163.52 292.69,167.09 304.28,170.2 324.75,174.87 392.35,188.71 465.37,205.83 485.87,210.36 503.55,213.78 518.35,216.17 533.24,218.04 545.19,219.11 560.17,219.89 572.16,220.06 587.16,219.72 599.14,219.06" fill="none" stroke="#111111" stroke-width="0.5"/><polyline id="SvgjsPolyline3763" points="1.91,132.59 19.57,129.16 37.37,126.48 52.29,124.92 67.26,124.08 82.26,124.02 97.24,124.77 112.16,126.28 127.01,128.45 144.69,131.82 162.21,135.91 179.55,140.73 193.81,145.38 207.83,150.72 218.81,155.56 229.45,161.11 247.54,171.76 255.63,175.7 261.18,177.99 269.68,180.93 284.19,184.71 304.87,188.38 361.34,196.1 387.94,200.7 420.22,207.55 490.26,224.25 504.95,227.26 519.72,229.85 537.56,232.25 558.49,233.91 576.49,234.31 597.47,233.63" fill="none" stroke="#111111" stroke-width="0.5"/><polyline id="SvgjsPolyline3764" points="11.5,292.8 14.17,291.44 17.11,290.93 20.08,291.28 22.82,292.49 25.02,294.5 26.43,297.13 26.88,300.08 26.41,303.03 25.11,305.73 23.12,307.96 20.55,309.48 17.62,310.08 14.68,309.62 12.04,308.21 9.93,306.09 8.5,303.46 7.88,300.54 8.2,297.57 9.48,294.88 11.6,292.77" fill="none" stroke="#111111" stroke-width="0.5"/><polyline id="SvgjsPolyline3765" points="1.3,115.62 44.41,102.71 58.99,99.21 70.8,97.07 88.68,95.06 103.67,94.44 118.66,94.78 133.6,96.13 145.45,97.98 160.07,101.31 171.59,104.66 205.84,115.77 225.97,121.73 249.14,127.99 301.46,141.36 347.72,154.16 426.42,173.33 467.42,182.41 485.1,185.78 502.87,188.65 520.73,190.87 535.68,192.15 550.66,192.87 565.66,193 580.65,192.59 598.62,191.44" fill="none" stroke="#111111" stroke-width="0.5"/><polyline id="SvgjsPolyline3766" points="2.78,120.27 26.06,114.45 43.62,110.49 58.37,107.75 70.26,106.14 85.21,105.03 97.21,104.96 109.19,105.64 124.09,107.38 138.85,109.99 156.41,113.98 234.79,134.4 269.52,143.87 306.77,155.43 329.92,161.72 440.87,187.92 476,195.77 493.68,199.19 508.48,201.63 523.35,203.6 538.28,205.03 553.25,205.87 568.25,206.1 583.24,205.76 598.22,204.89" fill="none" stroke="#111111" stroke-width="0.5"/><polyline id="SvgjsPolyline3767" points="0.87,103.73 17.64,97.18 34.82,91.84 52.37,87.87 73.12,84.64 94.02,82.67 118,81.82 141.99,82.41 162.92,84.12 174.83,85.63 186.67,87.56 198.42,89.98 207.15,92.17 224.29,97.63 252.13,108.82 263.37,113.02 277.62,117.71 292.01,121.91 387.89,146.56 420.02,154.12 452.3,160.98 472.95,164.78 490.74,167.52 508.61,169.68 526.55,171.14 544.53,171.85 562.53,171.79 580.51,171.01 598.46,169.62" fill="none" stroke="#111111" stroke-width="0.5"/><polyline id="SvgjsPolyline3768" points="1.53,108.05 21.19,100.67 35.48,96.13 52.99,91.97 70.75,89.09 91.66,87.12 109.65,86.53 127.64,86.91 148.56,88.68 166.34,91.48 175.13,93.41 183.82,95.75 195.22,99.47 234.58,114.12 251.75,119.54 269.08,124.41 321.43,137.65 359.1,147.73 385.28,154.33 426.14,164.05 455.45,170.44 476.07,174.4 493.84,177.3 511.69,179.6 529.62,181.2 544.6,181.93 562.6,182.08 580.58,181.47 598.54,180.2" fill="none" stroke="#111111" stroke-width="0.5"/><polyline id="SvgjsPolyline3769" points="2.13,90.78 22.38,85.23 42.93,80.94 63.66,77.62 87.51,74.89 108.45,73.42 132.44,72.86 153.44,73.35 174.39,74.71 192.3,76.51 213.11,79.31 230.86,82.33 245.55,85.34 263,89.74 297.42,100.28 320.48,106.96 361.1,117.62 384.45,123.15 410.84,128.88 434.4,133.46 455.1,136.95 472.93,139.46 490.82,141.44 508.76,142.8 523.75,143.42 541.75,143.52 559.74,142.96 577.7,141.8 598.61,139.85" fill="none" stroke="#111111" stroke-width="0.5"/><polyline id="SvgjsPolyline3770" points="1.05,93.88 18.29,88.73 38.77,84.1 59.48,80.63 83.32,77.87 104.27,76.46 128.26,76.04 149.25,76.68 173.17,78.56 188.07,80.34 202.89,82.6 217.63,85.4 229.32,88.12 243.73,92.27 277.72,104.12 297.67,110.68 320.63,117.67 340.85,123.35 366.98,130.14 399.07,137.8 428.4,144.14 451.96,148.7 472.68,152.12 490.52,154.5 508.43,156.28 526.4,157.37 541.39,157.73 559.39,157.49 577.36,156.58 598.29,154.83" fill="none" stroke="#111111" stroke-width="0.5"/><polyline id="SvgjsPolyline3771" points="1.65,78.87 28.1,73.41 54.65,68.54 75.38,65.19 96.19,62.35 114.09,60.45 132.04,59.2 147.03,58.72 165.03,58.87 180.02,59.57 197.96,61.02 218.82,63.37 242.6,66.63 275.21,71.69 304.78,76.73 360.74,87.58 390.28,92.8 422.93,97.58 452.76,100.79 470.71,102.07 485.7,102.73 500.69,102.99 518.69,102.77 536.67,101.99 554.63,100.72 599.39,96.1" fill="none" stroke="#111111" stroke-width="0.5"/><polyline id="SvgjsPolyline3772" points="1.22,83.8 21.73,79.28 45.33,74.92 69.06,71.36 89.92,68.96 110.86,67.35 128.84,66.67 146.84,66.69 167.82,67.55 188.76,69.22 209.62,71.56 230.43,74.44 257.05,78.9 283.49,84.37 338.76,98.3 376.81,106.88 418.05,114.81 438.78,118.12 456.62,120.51 474.52,122.41 492.47,123.74 510.46,124.47 525.46,124.58 543.45,124.14 558.43,123.33 579.36,121.62 597.26,119.76" fill="none" stroke="#111111" stroke-width="0.5"/><polyline id="SvgjsPolyline3773" points="2.15,66.97 31.31,59.95 71.86,49.01 92.36,44.43 107.13,41.87 121.99,39.83 139.9,38 157.85,36.72 175.84,35.94 193.83,35.6 214.83,35.71 235.82,36.3 274.76,38.5 337.54,43.74 367.47,45.85 400.43,47.37 430.43,47.8 463.41,47.03 499.34,44.72 526.22,42.17 597.79,34.3" fill="none" stroke="#111111" stroke-width="0.5"/><polyline id="SvgjsPolyline3774" points="2.84,73.09 76.26,57.8 93.94,54.44 108.75,52.02 126.61,49.77 141.55,48.5 156.53,47.77 174.53,47.58 189.53,47.9 204.5,48.72 231.36,51.41 258.07,55.36 317.23,65.37 367.63,73.16 406.33,77.96 439.21,80.74 457.19,81.63 475.19,82.02 493.19,81.91 511.17,81.28 544.09,78.96 597.78,73.17" fill="none" stroke="#111111" stroke-width="0.5"/><polyline id="SvgjsPolyline3775" points="0.5,81.35 26.93,75.83 47.6,72.11 68.35,68.88 92.16,65.91 110.09,64.32 128.07,63.37 146.06,63.15 164.06,63.64 185.01,65.04 205.9,67.16 226.73,69.82 253.43,73.84 291.8,80.79 347.4,93.33 385.63,101.03 424.11,107.41 453.88,111.09 471.81,112.64 489.78,113.63 504.78,113.99 522.78,113.86 537.77,113.3 555.73,112.14 597.52,108.03" fill="none" stroke="#111111" stroke-width="0.5"/><polyline id="SvgjsPolyline3776" points="2.53,55.08 28.3,47.04 39.85,43.78 54.42,40.22 69.11,37.19 86.84,34.09 107.62,31.06 128.47,28.56 152.36,26.29 191.28,23.84 227.27,22.86 263.27,22.86 362.26,24.31 392.25,23.99 416.24,23.2 443.2,21.68 470.11,19.52 499.96,16.51 562.57,9.49 598.41,6.16" fill="none" stroke="#111111" stroke-width="0.5"/><polyline id="SvgjsPolyline3777" points="1.19,70.45 33.4,63.29 80.08,52.13 100.67,47.98 115.49,45.66 133.37,43.61 148.32,42.44 166.3,41.63 181.3,41.4 199.3,41.63 214.29,42.22 232.25,43.42 259.1,46.17 330.53,55.24 366.3,59.31 405.16,62.63 438.12,64.15 471.12,64.22 504.08,62.78 539.95,59.73 599.58,53.12" fill="none" stroke="#111111" stroke-width="0.5"/><polyline id="SvgjsPolyline3778" points="2.42,61.38 48.46,47.81 62.99,44.08 74.71,41.52 92.43,38.33 110.24,35.78 131.11,33.47 152.05,31.77 188,30.12 227,29.88 268.99,30.96 364.9,35.09 400.89,35.58 424.89,35.27 454.86,34.02 484.78,31.84 511.66,29.23 571.29,22.57 598.15,19.91" fill="none" stroke="#111111" stroke-width="0.5"/><polyline id="SvgjsPolyline3779" points="1.99,43.19 19.5,38.99 37.11,35.26 78.44,27.82 134.81,19.37 182.45,13.5 215.3,10.42 242.23,8.52 269.2,7.12 353.12,3.59 380.08,2.01 407,0" fill="none" stroke="#111111" stroke-width="0.5"/><polyline id="SvgjsPolyline3780" points="1.64,47.49 19.01,42.75 33.6,39.29 51.23,35.65 71.9,31.94 92.64,28.68 119.39,25.02 140.25,22.55 167.11,19.89 200.02,17.48 232.99,15.98 265.98,15.23 343.97,14.32 367.97,13.67 394.94,12.49 424.88,10.6 454.77,8.04 526.34,0.16" fill="none" stroke="#111111" stroke-width="0.5"/><polyline id="SvgjsPolyline3781" points="0.84,48.56 18.17,43.68 32.74,40.11 47.4,36.96 68.05,33.12 88.78,29.78 112.55,26.45 139.36,23.26 160.25,21.19 190.17,18.89 226.12,17.17 262.11,16.4 349.11,15.71 373.1,15.09 403.07,13.75 433,11.7 459.89,9.28 543.38,0.01" fill="none" stroke="#111111" stroke-width="0.5"/><polyline id="SvgjsPolyline3782" points="2.11,31.28 58.19,21.09 78.76,16.85 128.54,5.76 143.27,2.95 161.04,0.08" fill="none" stroke="#111111" stroke-width="0.5"/><polyline id="SvgjsPolyline3783" points="1.13,34.78 74.91,21.28 145.54,7.3 169.23,3.47 196.01,0.02" fill="none" stroke="#111111" stroke-width="0.5"/><polyline id="SvgjsPolyline3784" points="0.18,19.92 26.64,14.59 64.48,5.13 84.96,0.5" fill="none" stroke="#111111" stroke-width="0.5"/><polyline id="SvgjsPolyline3785" points="0.15,22.89 17.85,19.62 32.52,16.48 76.17,5.56 99.61,0.44" fill="none" stroke="#111111" stroke-width="0.5"/><polyline id="SvgjsPolyline3786" points="1.09,8.06 39.29,0.24" fill="none" stroke="#111111" stroke-width="0.5"/></g></svg>