<svg xmlns="http://www.w3.org/2000/svg" version="1.1" xmlns:xlink="http://www.w3.org/1999/xlink" xmlns:svgjs="http://svgjs.dev/svgjs" viewBox="0 0 800 800"><defs><linearGradient x1="50%" y1="0%" x2="50%" y2="100%" id="cccoil-grad"><stop stop-color="hsl(206, 75%, 49%)" stop-opacity="1" offset="0%"></stop><stop stop-color="hsl(331, 90%, 56%)" stop-opacity="1" offset="100%"></stop></linearGradient></defs><g stroke="hsl(0, 0%, 89%)" fill="none" stroke-linecap="round"><circle r="636" cx="400" cy="400" stroke-width="1" stroke-dasharray="3996 3996" transform="rotate(360, 400, 400)" opacity="0.05"></circle><circle r="609.5" cx="400" cy="400" stroke-width="1" stroke-dasharray="3663 3830" transform="rotate(344, 400, 400)" opacity="0.09"></circle><circle r="583" cx="400" cy="400" stroke-width="1" stroke-dasharray="3345 3663" transform="rotate(329, 400, 400)" opacity="0.13"></circle><circle r="556.5" cx="400" cy="400" stroke-width="1" stroke-dasharray="3041 3497" transform="rotate(313, 400, 400)" opacity="0.17"></circle><circle r="530" cx="400" cy="400" stroke-width="1" stroke-dasharray="2751 3330" transform="rotate(297, 400, 400)" opacity="0.22"></circle><circle r="503.5" cx="400" cy="400" stroke-width="1" stroke-dasharray="2476 3164" transform="rotate(282, 400, 400)" opacity="0.26"></circle><circle r="477" cx="400" cy="400" stroke-width="1" stroke-dasharray="2215 2997" transform="rotate(266, 400, 400)" opacity="0.30"></circle><circle r="450.5" cx="400" cy="400" stroke-width="1" stroke-dasharray="1969 2831" transform="rotate(250, 400, 400)" opacity="0.34"></circle><circle r="424" cx="400" cy="400" stroke-width="1" stroke-dasharray="1737 2664" transform="rotate(235, 400, 400)" opacity="0.38"></circle><circle r="397.5" cx="400" cy="400" stroke-width="1" stroke-dasharray="1520 2498" transform="rotate(219, 400, 400)" opacity="0.42"></circle><circle r="371" cx="400" cy="400" stroke-width="1" stroke-dasharray="1318 2331" transform="rotate(203, 400, 400)" opacity="0.46"></circle><circle r="344.5" cx="400" cy="400" stroke-width="1" stroke-dasharray="1129 2165" transform="rotate(188, 400, 400)" opacity="0.50"></circle><circle r="318" cx="400" cy="400" stroke-width="1" stroke-dasharray="956 1998" transform="rotate(172, 400, 400)" opacity="0.55"></circle><circle r="291.5" cx="400" cy="400" stroke-width="1" stroke-dasharray="796 1832" transform="rotate(157, 400, 400)" opacity="0.59"></circle><circle r="265" cx="400" cy="400" stroke-width="1" stroke-dasharray="652 1665" transform="rotate(141, 400, 400)" opacity="0.63"></circle><circle r="238.5" cx="400" cy="400" stroke-width="1" stroke-dasharray="521 1499" transform="rotate(125, 400, 400)" opacity="0.67"></circle><circle r="212" cx="400" cy="400" stroke-width="1" stroke-dasharray="405 1332" transform="rotate(110, 400, 400)" opacity="0.71"></circle><circle r="185.5" cx="400" cy="400" stroke-width="1" stroke-dasharray="304 1166" transform="rotate(94, 400, 400)" opacity="0.75"></circle><circle r="159" cx="400" cy="400" stroke-width="1" stroke-dasharray="217 999" transform="rotate(78, 400, 400)" opacity="0.79"></circle><circle r="132.5" cx="400" cy="400" stroke-width="1" stroke-dasharray="145 833" transform="rotate(63, 400, 400)" opacity="0.83"></circle><circle r="106" cx="400" cy="400" stroke-width="1" stroke-dasharray="87 666" transform="rotate(47, 400, 400)" opacity="0.88"></circle><circle r="79.5" cx="400" cy="400" stroke-width="1" stroke-dasharray="43 500" transform="rotate(31, 400, 400)" opacity="0.92"></circle><circle r="53" cx="400" cy="400" stroke-width="1" stroke-dasharray="14 333" transform="rotate(16, 400, 400)" opacity="0.96"></circle><circle r="26.5" cx="400" cy="400" stroke-width="1" stroke-dasharray="0 167" opacity="1.00"></circle></g></svg>