<svg width="232" height="86" viewBox="0 0 232 86" fill="none" xmlns="http://www.w3.org/2000/svg">
<g clip-path="url(#clip0_617_395)">
<path d="M22.808 55.7805C22.808 55.2209 22.3303 54.7673 21.7409 54.7673C21.1516 54.7673 20.6738 55.2209 20.6738 55.7805C20.6738 56.34 21.1516 56.7936 21.7409 56.7936C22.3303 56.7936 22.808 56.34 22.808 55.7805Z" fill="black"/>
<path d="M16.6527 55.7805C16.6527 55.2209 16.175 54.7673 15.5856 54.7673C14.9963 54.7673 14.5186 55.2209 14.5186 55.7805C14.5186 56.34 14.9963 56.7936 15.5856 56.7936C16.175 56.7936 16.6527 56.34 16.6527 55.7805Z" fill="black"/>
<path d="M10.5024 55.7805C10.5024 55.2209 10.0246 54.7673 9.43526 54.7673C8.84592 54.7673 8.36816 55.2209 8.36816 55.7805C8.36816 56.34 8.84592 56.7936 9.43526 56.7936C10.0246 56.7936 10.5024 56.34 10.5024 55.7805Z" fill="black"/>
<path d="M22.808 61.6193C22.808 61.0598 22.3303 60.6062 21.7409 60.6062C21.1516 60.6062 20.6738 61.0598 20.6738 61.6193C20.6738 62.1789 21.1516 62.6324 21.7409 62.6324C22.3303 62.6324 22.808 62.1789 22.808 61.6193Z" fill="black"/>
<path d="M28.9584 61.6193C28.9584 61.0598 28.4807 60.6062 27.8913 60.6062C27.302 60.6062 26.8242 61.0598 26.8242 61.6193C26.8242 62.1789 27.302 62.6324 27.8913 62.6324C28.4807 62.6324 28.9584 62.1789 28.9584 61.6193Z" fill="black"/>
<path d="M16.6527 61.6193C16.6527 61.0598 16.175 60.6062 15.5856 60.6062C14.9963 60.6062 14.5186 61.0598 14.5186 61.6193C14.5186 62.1789 14.9963 62.6324 15.5856 62.6324C16.175 62.6324 16.6527 62.1789 16.6527 61.6193Z" fill="black"/>
<path d="M10.5024 61.6193C10.5024 61.0598 10.0246 60.6062 9.43526 60.6062C8.84592 60.6062 8.36816 61.0598 8.36816 61.6193C8.36816 62.1789 8.84592 62.6324 9.43526 62.6324C10.0246 62.6324 10.5024 62.1789 10.5024 61.6193Z" fill="black"/>
<path d="M16.6527 67.4584C16.6527 66.8989 16.175 66.4453 15.5856 66.4453C14.9963 66.4453 14.5186 66.8989 14.5186 67.4584C14.5186 68.018 14.9963 68.4715 15.5856 68.4715C16.175 68.4715 16.6527 68.018 16.6527 67.4584Z" fill="black"/>
<path d="M10.5024 67.4584C10.5024 66.8989 10.0246 66.4453 9.43526 66.4453C8.84592 66.4453 8.36816 66.8989 8.36816 67.4584C8.36816 68.018 8.84592 68.4715 9.43526 68.4715C10.0246 68.4715 10.5024 68.018 10.5024 67.4584Z" fill="black"/>
<path d="M22.808 73.3032C22.808 72.7436 22.3303 72.29 21.7409 72.29C21.1516 72.29 20.6738 72.7436 20.6738 73.3032C20.6738 73.8627 21.1516 74.3163 21.7409 74.3163C22.3303 74.3163 22.808 73.8627 22.808 73.3032Z" fill="black"/>
<path d="M28.9584 73.3032C28.9584 72.7436 28.4807 72.29 27.8913 72.29C27.302 72.29 26.8242 72.7436 26.8242 73.3032C26.8242 73.8627 27.302 74.3163 27.8913 74.3163C28.4807 74.3163 28.9584 73.8627 28.9584 73.3032Z" fill="black"/>
<path d="M35.1147 73.3032C35.1147 72.7436 34.6369 72.29 34.0476 72.29C33.4582 72.29 32.9805 72.7436 32.9805 73.3032C32.9805 73.8627 33.4582 74.3163 34.0476 74.3163C34.6369 74.3163 35.1147 73.8627 35.1147 73.3032Z" fill="black"/>
<path d="M22.808 79.142C22.808 78.5825 22.3303 78.1289 21.7409 78.1289C21.1516 78.1289 20.6738 78.5825 20.6738 79.142C20.6738 79.7016 21.1516 80.1551 21.7409 80.1551C22.3303 80.1551 22.808 79.7016 22.808 79.142Z" fill="black"/>
<path d="M28.9584 79.142C28.9584 78.5825 28.4807 78.1289 27.8913 78.1289C27.302 78.1289 26.8242 78.5825 26.8242 79.142C26.8242 79.7016 27.302 80.1551 27.8913 80.1551C28.4807 80.1551 28.9584 79.7016 28.9584 79.142Z" fill="black"/>
<path d="M28.9584 84.9868C28.9584 84.4272 28.4807 83.9736 27.8913 83.9736C27.302 83.9736 26.8242 84.4272 26.8242 84.9868C26.8242 85.5463 27.302 85.9999 27.8913 85.9999C28.4807 85.9999 28.9584 85.5463 28.9584 84.9868Z" fill="black"/>
<path d="M35.1147 79.142C35.1147 78.5825 34.6369 78.1289 34.0476 78.1289C33.4582 78.1289 32.9805 78.5825 32.9805 79.142C32.9805 79.7016 33.4582 80.1551 34.0476 80.1551C34.6369 80.1551 35.1147 79.7016 35.1147 79.142Z" fill="black"/>
<path d="M41.265 73.3032C41.265 72.7436 40.7873 72.29 40.198 72.29C39.6086 72.29 39.1309 72.7436 39.1309 73.3032C39.1309 73.8627 39.6086 74.3163 40.198 74.3163C40.7873 74.3163 41.265 73.8627 41.265 73.3032Z" fill="black"/>
<path d="M16.6527 73.3032C16.6527 72.7436 16.175 72.29 15.5856 72.29C14.9963 72.29 14.5186 72.7436 14.5186 73.3032C14.5186 73.8627 14.9963 74.3163 15.5856 74.3163C16.175 74.3163 16.6527 73.8627 16.6527 73.3032Z" fill="black"/>
<path d="M22.808 49.9357C22.808 49.3762 22.3303 48.9226 21.7409 48.9226C21.1516 48.9226 20.6738 49.3762 20.6738 49.9357C20.6738 50.4953 21.1516 50.9488 21.7409 50.9488C22.3303 50.9488 22.808 50.4953 22.808 49.9357Z" fill="black"/>
<path d="M28.9584 49.9357C28.9584 49.3762 28.4807 48.9226 27.8913 48.9226C27.302 48.9226 26.8242 49.3762 26.8242 49.9357C26.8242 50.4953 27.302 50.9488 27.8913 50.9488C28.4807 50.9488 28.9584 50.4953 28.9584 49.9357Z" fill="black"/>
<path d="M16.6527 49.9357C16.6527 49.3762 16.175 48.9226 15.5856 48.9226C14.9963 48.9226 14.5186 49.3762 14.5186 49.9357C14.5186 50.4953 14.9963 50.9488 15.5856 50.9488C16.175 50.9488 16.6527 50.4953 16.6527 49.9357Z" fill="black"/>
<path d="M10.5024 49.9357C10.5024 49.3762 10.0246 48.9226 9.43526 48.9226C8.84592 48.9226 8.36816 49.3762 8.36816 49.9357C8.36816 50.4953 8.84592 50.9488 9.43526 50.9488C10.0246 50.9488 10.5024 50.4953 10.5024 49.9357Z" fill="black"/>
<path d="M47.4145 49.9357C47.4145 49.3762 46.9367 48.9226 46.3474 48.9226C45.758 48.9226 45.2803 49.3762 45.2803 49.9357C45.2803 50.4953 45.758 50.9488 46.3474 50.9488C46.9367 50.9488 47.4145 50.4953 47.4145 49.9357Z" fill="black"/>
<path d="M41.265 49.9357C41.265 49.3762 40.7873 48.9226 40.198 48.9226C39.6086 48.9226 39.1309 49.3762 39.1309 49.9357C39.1309 50.4953 39.6086 50.9488 40.198 50.9488C40.7873 50.9488 41.265 50.4953 41.265 49.9357Z" fill="black"/>
<path d="M47.4145 55.7805C47.4145 55.2209 46.9367 54.7673 46.3474 54.7673C45.758 54.7673 45.2803 55.2209 45.2803 55.7805C45.2803 56.34 45.758 56.7936 46.3474 56.7936C46.9367 56.7936 47.4145 56.34 47.4145 55.7805Z" fill="black"/>
<path d="M41.265 55.7805C41.265 55.2209 40.7873 54.7673 40.198 54.7673C39.6086 54.7673 39.1309 55.2209 39.1309 55.7805C39.1309 56.34 39.6086 56.7936 40.198 56.7936C40.7873 56.7936 41.265 56.34 41.265 55.7805Z" fill="black"/>
<path d="M47.4145 61.6193C47.4145 61.0598 46.9367 60.6062 46.3474 60.6062C45.758 60.6062 45.2803 61.0598 45.2803 61.6193C45.2803 62.1789 45.758 62.6324 46.3474 62.6324C46.9367 62.6324 47.4145 62.1789 47.4145 61.6193Z" fill="black"/>
<path d="M41.265 61.6193C41.265 61.0598 40.7873 60.6062 40.198 60.6062C39.6086 60.6062 39.1309 61.0598 39.1309 61.6193C39.1309 62.1789 39.6086 62.6324 40.198 62.6324C40.7873 62.6324 41.265 62.1789 41.265 61.6193Z" fill="black"/>
<path d="M47.4145 67.4584C47.4145 66.8989 46.9367 66.4453 46.3474 66.4453C45.758 66.4453 45.2803 66.8989 45.2803 67.4584C45.2803 68.018 45.758 68.4715 46.3474 68.4715C46.9367 68.4715 47.4145 68.018 47.4145 67.4584Z" fill="black"/>
<path d="M41.265 67.4584C41.265 66.8989 40.7873 66.4453 40.198 66.4453C39.6086 66.4453 39.1309 66.8989 39.1309 67.4584C39.1309 68.018 39.6086 68.4715 40.198 68.4715C40.7873 68.4715 41.265 68.018 41.265 67.4584Z" fill="black"/>
<path d="M47.4145 44.0966C47.4145 43.5371 46.9367 43.0835 46.3474 43.0835C45.758 43.0835 45.2803 43.5371 45.2803 44.0966C45.2803 44.6561 45.758 45.1097 46.3474 45.1097C46.9367 45.1097 47.4145 44.6561 47.4145 44.0966Z" fill="black"/>
<path d="M41.265 44.0966C41.265 43.5371 40.7873 43.0835 40.198 43.0835C39.6086 43.0835 39.1309 43.5371 39.1309 44.0966C39.1309 44.6561 39.6086 45.1097 40.198 45.1097C40.7873 45.1097 41.265 44.6561 41.265 44.0966Z" fill="black"/>
<path d="M16.6527 44.0966C16.6527 43.5371 16.175 43.0835 15.5856 43.0835C14.9963 43.0835 14.5186 43.5371 14.5186 44.0966C14.5186 44.6561 14.9963 45.1097 15.5856 45.1097C16.175 45.1097 16.6527 44.6561 16.6527 44.0966Z" fill="black"/>
<path d="M10.5024 44.0966C10.5024 43.5371 10.0246 43.0835 9.43526 43.0835C8.84592 43.0835 8.36816 43.5371 8.36816 44.0966C8.36816 44.6561 8.84592 45.1097 9.43526 45.1097C10.0246 45.1097 10.5024 44.6561 10.5024 44.0966Z" fill="black"/>
<path d="M16.6527 38.2521C16.6527 37.6926 16.175 37.239 15.5856 37.239C14.9963 37.239 14.5186 37.6926 14.5186 38.2521C14.5186 38.8117 14.9963 39.2653 15.5856 39.2653C16.175 39.2653 16.6527 38.8117 16.6527 38.2521Z" fill="black"/>
<path d="M10.5024 38.2521C10.5024 37.6926 10.0246 37.239 9.43526 37.239C8.84592 37.239 8.36816 37.6926 8.36816 38.2521C8.36816 38.8117 8.84592 39.2653 9.43526 39.2653C10.0246 39.2653 10.5024 38.8117 10.5024 38.2521Z" fill="black"/>
<path d="M28.9584 38.2521C28.9584 37.6926 28.4807 37.239 27.8913 37.239C27.302 37.239 26.8242 37.6926 26.8242 38.2521C26.8242 38.8117 27.302 39.2653 27.8913 39.2653C28.4807 39.2653 28.9584 38.8117 28.9584 38.2521Z" fill="black"/>
<path d="M22.808 38.2521C22.808 37.6926 22.3303 37.239 21.7409 37.239C21.1516 37.239 20.6738 37.6926 20.6738 38.2521C20.6738 38.8117 21.1516 39.2653 21.7409 39.2653C22.3303 39.2653 22.808 38.8117 22.808 38.2521Z" fill="black"/>
<path d="M41.265 38.2521C41.265 37.6926 40.7873 37.239 40.198 37.239C39.6086 37.239 39.1309 37.6926 39.1309 38.2521C39.1309 38.8117 39.6086 39.2653 40.198 39.2653C40.7873 39.2653 41.265 38.8117 41.265 38.2521Z" fill="black"/>
<path d="M47.4145 38.2521C47.4145 37.6926 46.9367 37.239 46.3474 37.239C45.758 37.239 45.2803 37.6926 45.2803 38.2521C45.2803 38.8117 45.758 39.2653 46.3474 39.2653C46.9367 39.2653 47.4145 38.8117 47.4145 38.2521Z" fill="black"/>
<path d="M28.9584 32.413C28.9584 31.8535 28.4807 31.3999 27.8913 31.3999C27.302 31.3999 26.8242 31.8535 26.8242 32.413C26.8242 32.9726 27.302 33.4261 27.8913 33.4261C28.4807 33.4261 28.9584 32.9726 28.9584 32.413Z" fill="black"/>
<path d="M22.808 32.413C22.808 31.8535 22.3303 31.3999 21.7409 31.3999C21.1516 31.3999 20.6738 31.8535 20.6738 32.413C20.6738 32.9726 21.1516 33.4261 21.7409 33.4261C22.3303 33.4261 22.808 32.9726 22.808 32.413Z" fill="black"/>
<path d="M35.1147 32.413C35.1147 31.8535 34.6369 31.3999 34.0476 31.3999C33.4582 31.3999 32.9805 31.8535 32.9805 32.413C32.9805 32.9726 33.4582 33.4261 34.0476 33.4261C34.6369 33.4261 35.1147 32.9726 35.1147 32.413Z" fill="black"/>
<path d="M35.1147 38.2521C35.1147 37.6926 34.6369 37.239 34.0476 37.239C33.4582 37.239 32.9805 37.6926 32.9805 38.2521C32.9805 38.8117 33.4582 39.2653 34.0476 39.2653C34.6369 39.2653 35.1147 38.8117 35.1147 38.2521Z" fill="black"/>
<path d="M21.7448 42.2102H21.7388C20.6431 42.2102 19.7549 43.0535 19.7549 44.0938V44.0995C19.7549 45.1397 20.6431 45.983 21.7388 45.983H21.7448C22.8405 45.983 23.7287 45.1397 23.7287 44.0995V44.0938C23.7287 43.0535 22.8405 42.2102 21.7448 42.2102Z" fill="black"/>
<path d="M27.9001 42.2102H27.894C26.7984 42.2102 25.9102 43.0535 25.9102 44.0938V44.0995C25.9102 45.1397 26.7984 45.983 27.894 45.983H27.9001C28.9957 45.983 29.884 45.1397 29.884 44.0995V44.0938C29.884 43.0535 28.9957 42.2102 27.9001 42.2102Z" fill="black"/>
<path d="M34.0505 42.2102H34.0444C32.9488 42.2102 32.0605 43.0535 32.0605 44.0938V44.0995C32.0605 45.1397 32.9488 45.983 34.0444 45.983H34.0505C35.1461 45.983 36.0343 45.1397 36.0343 44.0995V44.0938C36.0343 43.0535 35.1461 42.2102 34.0505 42.2102Z" fill="black"/>
<path d="M34.0505 48.0549H34.0444C32.9488 48.0549 32.0605 48.8982 32.0605 49.9385V49.9442C32.0605 50.9844 32.9488 51.8277 34.0444 51.8277H34.0505C35.1461 51.8277 36.0343 50.9844 36.0343 49.9442V49.9385C36.0343 48.8982 35.1461 48.0549 34.0505 48.0549Z" fill="black"/>
<path d="M27.9001 53.894H27.894C26.7984 53.894 25.9102 54.7373 25.9102 55.7776V55.7833C25.9102 56.8236 26.7984 57.6668 27.894 57.6668H27.9001C28.9957 57.6668 29.884 56.8236 29.884 55.7833V55.7776C29.884 54.7373 28.9957 53.894 27.9001 53.894Z" fill="black"/>
<path d="M34.0505 53.894H34.0444C32.9488 53.894 32.0605 54.7373 32.0605 55.7776V55.7833C32.0605 56.8236 32.9488 57.6668 34.0444 57.6668H34.0505C35.1461 57.6668 36.0343 56.8236 36.0343 55.7833V55.7776C36.0343 54.7373 35.1461 53.894 34.0505 53.894Z" fill="black"/>
<path d="M34.0505 59.7329H34.0444C32.9488 59.7329 32.0605 60.5762 32.0605 61.6165V61.6222C32.0605 62.6624 32.9488 63.5057 34.0444 63.5057H34.0505C35.1461 63.5057 36.0343 62.6624 36.0343 61.6222V61.6165C36.0343 60.5762 35.1461 59.7329 34.0505 59.7329Z" fill="black"/>
<path d="M21.7448 65.5776H21.7388C20.6431 65.5776 19.7549 66.4209 19.7549 67.4612V67.4669C19.7549 68.5071 20.6431 69.3504 21.7388 69.3504H21.7448C22.8405 69.3504 23.7287 68.5071 23.7287 67.4669V67.4612C23.7287 66.4209 22.8405 65.5776 21.7448 65.5776Z" fill="black"/>
<path d="M27.9001 65.5776H27.894C26.7984 65.5776 25.9102 66.4209 25.9102 67.4612V67.4669C25.9102 68.5071 26.7984 69.3504 27.894 69.3504H27.9001C28.9957 69.3504 29.884 68.5071 29.884 67.4669V67.4612C29.884 66.4209 28.9957 65.5776 27.9001 65.5776Z" fill="black"/>
<path d="M34.0505 65.5776H34.0444C32.9488 65.5776 32.0605 66.4209 32.0605 67.4612V67.4669C32.0605 68.5071 32.9488 69.3504 34.0444 69.3504H34.0505C35.1461 69.3504 36.0343 68.5071 36.0343 67.4669V67.4612C36.0343 66.4209 35.1461 65.5776 34.0505 65.5776Z" fill="black"/>
</g>
<path d="M65.576 67.2197L58.0675 44.6756C57.8618 44.0589 58.1361 43.7163 58.7532 43.7163H62.0103C62.4903 43.7163 62.8332 43.9561 62.9703 44.4358L68.2159 61.6351L73.3244 44.4358C73.4616 43.9219 73.8044 43.7163 74.2844 43.7163H77.5758C78.0558 43.7163 78.3986 43.9219 78.5358 44.4358L83.61 61.6351L88.8899 44.4358C89.027 43.9561 89.3699 43.7163 89.8498 43.7163H93.1069C93.7241 43.7163 93.9983 44.0589 93.7926 44.6756L86.2842 67.2197C86.1128 67.6993 85.7699 67.9049 85.2899 67.9049H81.8957C81.4157 67.9049 81.0729 67.6993 80.9357 67.1854L75.9301 50.363L70.8902 67.1854C70.753 67.6993 70.4102 67.9049 69.9302 67.9049H66.5702C66.0903 67.9049 65.7474 67.6651 65.576 67.2197Z" fill="black"/>
<path d="M95.2977 60.1266C95.2612 59.5033 95.5918 59.1728 96.1791 59.1728H99.4473C100.035 59.1728 100.365 59.5033 100.402 60.0902C100.585 62.5117 101.614 63.0621 103.963 63.0621H111.38C113.95 63.0621 115.162 62.5481 115.162 60.3466V59.7597C115.162 57.5946 114.024 57.0077 111.784 57.0077H104.992C104.404 57.0077 104.074 56.6773 104.074 56.0904V53.7783C104.074 53.1915 104.404 52.861 104.992 52.861H111.601C113.767 52.861 114.942 52.3835 114.942 50.256V49.6692C114.942 47.4676 113.767 46.8807 111.123 46.8807H103.963C101.613 46.8807 100.585 47.3946 100.402 49.8161C100.365 50.403 100.035 50.7335 99.4473 50.7335H96.1791C95.5918 50.7335 95.2612 50.403 95.2977 49.7797C95.5542 44.5697 98.1986 42.0012 103.963 42.0012H111.307C117.255 42.0012 120.008 44.4227 120.046 49.1563V49.5233C120.046 52.5692 118.834 54.0369 117.403 54.9167C118.871 55.7975 120.23 57.3747 120.23 60.5676V60.8981C120.23 65.5952 117.512 67.9062 111.564 67.9062H103.964C98.1997 67.9062 95.5553 65.3377 95.2988 60.1277L95.2977 60.1266Z" fill="black"/>
<path d="M124.194 66.9877V42.9173C124.194 42.3305 124.525 42 125.112 42H139.322C145.527 42 147.987 44.4215 148.061 49.1551V49.522C148.061 52.568 146.813 53.9981 145.38 54.879C146.849 55.7598 148.245 57.3746 148.245 60.5664V60.8969C148.245 65.594 145.785 67.905 139.58 67.905H125.112C124.525 67.905 124.194 67.5745 124.194 66.9877ZM139.432 52.8609C141.341 52.8609 142.774 52.3834 142.774 50.2559V49.669C142.774 47.4675 141.341 46.8806 138.991 46.8806H129.261V52.862H139.431L139.432 52.8609ZM139.249 63.062C141.525 63.062 143.031 62.548 143.031 60.3465V59.7596C143.031 57.5945 141.599 56.9712 139.616 56.9712H129.262V63.062H139.249Z" fill="black"/>
<path d="M151.733 58.9893V50.9533C151.733 45.4494 154.34 42 160.435 42H169.871C175.966 42 178.573 45.4494 178.573 50.9533V58.9893C178.573 64.4567 175.966 67.9061 169.871 67.9061H160.435C154.34 67.9061 151.733 64.4567 151.733 58.9893ZM169.872 63.0255C172.332 63.0255 173.471 62.3281 173.471 59.1727V50.7698C173.471 47.578 172.443 46.8806 169.872 46.8806H160.436C157.903 46.8806 156.837 47.578 156.837 50.7698V59.1727C156.837 62.3281 157.976 63.0255 160.436 63.0255H169.872Z" fill="black"/>
<path d="M189.59 66.9877V46.9171H181.659C181.072 46.9171 180.741 46.5866 180.741 45.9997V42.9173C180.741 42.3305 181.072 42 181.659 42H202.625C203.212 42 203.543 42.3305 203.543 42.9173V45.9997C203.543 46.5866 203.212 46.9171 202.625 46.9171H194.694V66.9877C194.694 67.5745 194.363 67.905 193.776 67.905H190.508C189.921 67.905 189.59 67.5745 189.59 66.9877Z" fill="black"/>
<path d="M205.525 60.1266C205.489 59.5033 205.819 59.1728 206.407 59.1728H209.675C210.262 59.1728 210.556 59.5033 210.593 60.0902C210.813 62.2188 211.805 63.0256 214.192 63.0256H221.388C224.179 63.0256 225.171 62.3282 225.171 60.2007C225.171 58.0732 224.216 57.5957 221.755 57.4122L213.567 56.7889C207.912 56.349 205.672 54.5144 205.672 49.6703C205.672 44.8261 208.059 42.0012 214.448 42.0012H221.168C226.97 42.0012 229.577 44.6062 229.833 49.7797C229.87 50.403 229.539 50.7335 228.952 50.7335H225.647C225.06 50.7335 224.766 50.403 224.729 49.8161C224.509 47.6875 223.517 46.8807 221.168 46.8807H214.522C211.695 46.8807 210.703 47.5416 210.703 49.7056C210.703 51.7237 211.658 52.2377 214.119 52.4211L222.307 53.0445C227.888 53.4843 230.238 55.4295 230.238 60.2361C230.238 65.0426 227.851 67.9051 221.426 67.9051H214.193C208.354 67.9051 205.784 65.3001 205.527 60.1266H205.525Z" fill="black"/>
<defs>
<clipPath id="clip0_617_395">
<rect width="39.0526" height="54.6" fill="black" transform="translate(8.36816 31.3999)"/>
</clipPath>
</defs>
</svg>
