<svg width="232" height="86" viewBox="0 0 232 86" fill="none" xmlns="http://www.w3.org/2000/svg">
<g clip-path="url(#clip0_617_395)">
<path d="M22.808 55.7805C22.808 55.2209 22.3303 54.7673 21.7409 54.7673C21.1516 54.7673 20.6738 55.2209 20.6738 55.7805C20.6738 56.34 21.1516 56.7936 21.7409 56.7936C22.3303 56.7936 22.808 56.34 22.808 55.7805Z" fill="white"/>
<path d="M16.6527 55.7805C16.6527 55.2209 16.175 54.7673 15.5856 54.7673C14.9963 54.7673 14.5186 55.2209 14.5186 55.7805C14.5186 56.34 14.9963 56.7936 15.5856 56.7936C16.175 56.7936 16.6527 56.34 16.6527 55.7805Z" fill="white"/>
<path d="M10.5024 55.7805C10.5024 55.2209 10.0246 54.7673 9.43526 54.7673C8.84592 54.7673 8.36816 55.2209 8.36816 55.7805C8.36816 56.34 8.84592 56.7936 9.43526 56.7936C10.0246 56.7936 10.5024 56.34 10.5024 55.7805Z" fill="white"/>
<path d="M22.808 61.6193C22.808 61.0598 22.3303 60.6062 21.7409 60.6062C21.1516 60.6062 20.6738 61.0598 20.6738 61.6193C20.6738 62.1789 21.1516 62.6324 21.7409 62.6324C22.3303 62.6324 22.808 62.1789 22.808 61.6193Z" fill="white"/>
<path d="M28.9584 61.6193C28.9584 61.0598 28.4807 60.6062 27.8913 60.6062C27.302 60.6062 26.8242 61.0598 26.8242 61.6193C26.8242 62.1789 27.302 62.6324 27.8913 62.6324C28.4807 62.6324 28.9584 62.1789 28.9584 61.6193Z" fill="white"/>
<path d="M16.6527 61.6193C16.6527 61.0598 16.175 60.6062 15.5856 60.6062C14.9963 60.6062 14.5186 61.0598 14.5186 61.6193C14.5186 62.1789 14.9963 62.6324 15.5856 62.6324C16.175 62.6324 16.6527 62.1789 16.6527 61.6193Z" fill="white"/>
<path d="M10.5024 61.6193C10.5024 61.0598 10.0246 60.6062 9.43526 60.6062C8.84592 60.6062 8.36816 61.0598 8.36816 61.6193C8.36816 62.1789 8.84592 62.6324 9.43526 62.6324C10.0246 62.6324 10.5024 62.1789 10.5024 61.6193Z" fill="white"/>
<path d="M16.6527 67.4584C16.6527 66.8989 16.175 66.4453 15.5856 66.4453C14.9963 66.4453 14.5186 66.8989 14.5186 67.4584C14.5186 68.018 14.9963 68.4715 15.5856 68.4715C16.175 68.4715 16.6527 68.018 16.6527 67.4584Z" fill="white"/>
<path d="M10.5024 67.4584C10.5024 66.8989 10.0246 66.4453 9.43526 66.4453C8.84592 66.4453 8.36816 66.8989 8.36816 67.4584C8.36816 68.018 8.84592 68.4715 9.43526 68.4715C10.0246 68.4715 10.5024 68.018 10.5024 67.4584Z" fill="white"/>
<path d="M22.808 73.3032C22.808 72.7436 22.3303 72.29 21.7409 72.29C21.1516 72.29 20.6738 72.7436 20.6738 73.3032C20.6738 73.8627 21.1516 74.3163 21.7409 74.3163C22.3303 74.3163 22.808 73.8627 22.808 73.3032Z" fill="white"/>
<path d="M28.9584 73.3032C28.9584 72.7436 28.4807 72.29 27.8913 72.29C27.302 72.29 26.8242 72.7436 26.8242 73.3032C26.8242 73.8627 27.302 74.3163 27.8913 74.3163C28.4807 74.3163 28.9584 73.8627 28.9584 73.3032Z" fill="white"/>
<path d="M35.1147 73.3032C35.1147 72.7436 34.6369 72.29 34.0476 72.29C33.4582 72.29 32.9805 72.7436 32.9805 73.3032C32.9805 73.8627 33.4582 74.3163 34.0476 74.3163C34.6369 74.3163 35.1147 73.8627 35.1147 73.3032Z" fill="white"/>
<path d="M22.808 79.142C22.808 78.5825 22.3303 78.1289 21.7409 78.1289C21.1516 78.1289 20.6738 78.5825 20.6738 79.142C20.6738 79.7016 21.1516 80.1551 21.7409 80.1551C22.3303 80.1551 22.808 79.7016 22.808 79.142Z" fill="white"/>
<path d="M28.9584 79.142C28.9584 78.5825 28.4807 78.1289 27.8913 78.1289C27.302 78.1289 26.8242 78.5825 26.8242 79.142C26.8242 79.7016 27.302 80.1551 27.8913 80.1551C28.4807 80.1551 28.9584 79.7016 28.9584 79.142Z" fill="white"/>
<path d="M28.9584 84.9868C28.9584 84.4272 28.4807 83.9736 27.8913 83.9736C27.302 83.9736 26.8242 84.4272 26.8242 84.9868C26.8242 85.5463 27.302 85.9999 27.8913 85.9999C28.4807 85.9999 28.9584 85.5463 28.9584 84.9868Z" fill="white"/>
<path d="M35.1147 79.142C35.1147 78.5825 34.6369 78.1289 34.0476 78.1289C33.4582 78.1289 32.9805 78.5825 32.9805 79.142C32.9805 79.7016 33.4582 80.1551 34.0476 80.1551C34.6369 80.1551 35.1147 79.7016 35.1147 79.142Z" fill="white"/>
<path d="M41.265 73.3032C41.265 72.7436 40.7873 72.29 40.198 72.29C39.6086 72.29 39.1309 72.7436 39.1309 73.3032C39.1309 73.8627 39.6086 74.3163 40.198 74.3163C40.7873 74.3163 41.265 73.8627 41.265 73.3032Z" fill="white"/>
<path d="M16.6527 73.3032C16.6527 72.7436 16.175 72.29 15.5856 72.29C14.9963 72.29 14.5186 72.7436 14.5186 73.3032C14.5186 73.8627 14.9963 74.3163 15.5856 74.3163C16.175 74.3163 16.6527 73.8627 16.6527 73.3032Z" fill="white"/>
<path d="M22.808 49.9357C22.808 49.3762 22.3303 48.9226 21.7409 48.9226C21.1516 48.9226 20.6738 49.3762 20.6738 49.9357C20.6738 50.4953 21.1516 50.9488 21.7409 50.9488C22.3303 50.9488 22.808 50.4953 22.808 49.9357Z" fill="white"/>
<path d="M28.9584 49.9357C28.9584 49.3762 28.4807 48.9226 27.8913 48.9226C27.302 48.9226 26.8242 49.3762 26.8242 49.9357C26.8242 50.4953 27.302 50.9488 27.8913 50.9488C28.4807 50.9488 28.9584 50.4953 28.9584 49.9357Z" fill="white"/>
<path d="M16.6527 49.9357C16.6527 49.3762 16.175 48.9226 15.5856 48.9226C14.9963 48.9226 14.5186 49.3762 14.5186 49.9357C14.5186 50.4953 14.9963 50.9488 15.5856 50.9488C16.175 50.9488 16.6527 50.4953 16.6527 49.9357Z" fill="white"/>
<path d="M10.5024 49.9357C10.5024 49.3762 10.0246 48.9226 9.43526 48.9226C8.84592 48.9226 8.36816 49.3762 8.36816 49.9357C8.36816 50.4953 8.84592 50.9488 9.43526 50.9488C10.0246 50.9488 10.5024 50.4953 10.5024 49.9357Z" fill="white"/>
<path d="M47.4145 49.9357C47.4145 49.3762 46.9367 48.9226 46.3474 48.9226C45.758 48.9226 45.2803 49.3762 45.2803 49.9357C45.2803 50.4953 45.758 50.9488 46.3474 50.9488C46.9367 50.9488 47.4145 50.4953 47.4145 49.9357Z" fill="white"/>
<path d="M41.265 49.9357C41.265 49.3762 40.7873 48.9226 40.198 48.9226C39.6086 48.9226 39.1309 49.3762 39.1309 49.9357C39.1309 50.4953 39.6086 50.9488 40.198 50.9488C40.7873 50.9488 41.265 50.4953 41.265 49.9357Z" fill="white"/>
<path d="M47.4145 55.7805C47.4145 55.2209 46.9367 54.7673 46.3474 54.7673C45.758 54.7673 45.2803 55.2209 45.2803 55.7805C45.2803 56.34 45.758 56.7936 46.3474 56.7936C46.9367 56.7936 47.4145 56.34 47.4145 55.7805Z" fill="white"/>
<path d="M41.265 55.7805C41.265 55.2209 40.7873 54.7673 40.198 54.7673C39.6086 54.7673 39.1309 55.2209 39.1309 55.7805C39.1309 56.34 39.6086 56.7936 40.198 56.7936C40.7873 56.7936 41.265 56.34 41.265 55.7805Z" fill="white"/>
<path d="M47.4145 61.6193C47.4145 61.0598 46.9367 60.6062 46.3474 60.6062C45.758 60.6062 45.2803 61.0598 45.2803 61.6193C45.2803 62.1789 45.758 62.6324 46.3474 62.6324C46.9367 62.6324 47.4145 62.1789 47.4145 61.6193Z" fill="white"/>
<path d="M41.265 61.6193C41.265 61.0598 40.7873 60.6062 40.198 60.6062C39.6086 60.6062 39.1309 61.0598 39.1309 61.6193C39.1309 62.1789 39.6086 62.6324 40.198 62.6324C40.7873 62.6324 41.265 62.1789 41.265 61.6193Z" fill="white"/>
<path d="M47.4145 67.4584C47.4145 66.8989 46.9367 66.4453 46.3474 66.4453C45.758 66.4453 45.2803 66.8989 45.2803 67.4584C45.2803 68.018 45.758 68.4715 46.3474 68.4715C46.9367 68.4715 47.4145 68.018 47.4145 67.4584Z" fill="white"/>
<path d="M41.265 67.4584C41.265 66.8989 40.7873 66.4453 40.198 66.4453C39.6086 66.4453 39.1309 66.8989 39.1309 67.4584C39.1309 68.018 39.6086 68.4715 40.198 68.4715C40.7873 68.4715 41.265 68.018 41.265 67.4584Z" fill="white"/>
<path d="M47.4145 44.0966C47.4145 43.5371 46.9367 43.0835 46.3474 43.0835C45.758 43.0835 45.2803 43.5371 45.2803 44.0966C45.2803 44.6561 45.758 45.1097 46.3474 45.1097C46.9367 45.1097 47.4145 44.6561 47.4145 44.0966Z" fill="white"/>
<path d="M41.265 44.0966C41.265 43.5371 40.7873 43.0835 40.198 43.0835C39.6086 43.0835 39.1309 43.5371 39.1309 44.0966C39.1309 44.6561 39.6086 45.1097 40.198 45.1097C40.7873 45.1097 41.265 44.6561 41.265 44.0966Z" fill="white"/>
<path d="M16.6527 44.0966C16.6527 43.5371 16.175 43.0835 15.5856 43.0835C14.9963 43.0835 14.5186 43.5371 14.5186 44.0966C14.5186 44.6561 14.9963 45.1097 15.5856 45.1097C16.175 45.1097 16.6527 44.6561 16.6527 44.0966Z" fill="white"/>
<path d="M10.5024 44.0966C10.5024 43.5371 10.0246 43.0835 9.43526 43.0835C8.84592 43.0835 8.36816 43.5371 8.36816 44.0966C8.36816 44.6561 8.84592 45.1097 9.43526 45.1097C10.0246 45.1097 10.5024 44.6561 10.5024 44.0966Z" fill="white"/>
<path d="M16.6527 38.2521C16.6527 37.6926 16.175 37.239 15.5856 37.239C14.9963 37.239 14.5186 37.6926 14.5186 38.2521C14.5186 38.8117 14.9963 39.2653 15.5856 39.2653C16.175 39.2653 16.6527 38.8117 16.6527 38.2521Z" fill="white"/>
<path d="M10.5024 38.2521C10.5024 37.6926 10.0246 37.239 9.43526 37.239C8.84592 37.239 8.36816 37.6926 8.36816 38.2521C8.36816 38.8117 8.84592 39.2653 9.43526 39.2653C10.0246 39.2653 10.5024 38.8117 10.5024 38.2521Z" fill="white"/>
<path d="M28.9584 38.2521C28.9584 37.6926 28.4807 37.239 27.8913 37.239C27.302 37.239 26.8242 37.6926 26.8242 38.2521C26.8242 38.8117 27.302 39.2653 27.8913 39.2653C28.4807 39.2653 28.9584 38.8117 28.9584 38.2521Z" fill="white"/>
<path d="M22.808 38.2521C22.808 37.6926 22.3303 37.239 21.7409 37.239C21.1516 37.239 20.6738 37.6926 20.6738 38.2521C20.6738 38.8117 21.1516 39.2653 21.7409 39.2653C22.3303 39.2653 22.808 38.8117 22.808 38.2521Z" fill="white"/>
<path d="M41.265 38.2521C41.265 37.6926 40.7873 37.239 40.198 37.239C39.6086 37.239 39.1309 37.6926 39.1309 38.2521C39.1309 38.8117 39.6086 39.2653 40.198 39.2653C40.7873 39.2653 41.265 38.8117 41.265 38.2521Z" fill="white"/>
<path d="M47.4145 38.2521C47.4145 37.6926 46.9367 37.239 46.3474 37.239C45.758 37.239 45.2803 37.6926 45.2803 38.2521C45.2803 38.8117 45.758 39.2653 46.3474 39.2653C46.9367 39.2653 47.4145 38.8117 47.4145 38.2521Z" fill="white"/>
<path d="M28.9584 32.413C28.9584 31.8535 28.4807 31.3999 27.8913 31.3999C27.302 31.3999 26.8242 31.8535 26.8242 32.413C26.8242 32.9726 27.302 33.4261 27.8913 33.4261C28.4807 33.4261 28.9584 32.9726 28.9584 32.413Z" fill="white"/>
<path d="M22.808 32.413C22.808 31.8535 22.3303 31.3999 21.7409 31.3999C21.1516 31.3999 20.6738 31.8535 20.6738 32.413C20.6738 32.9726 21.1516 33.4261 21.7409 33.4261C22.3303 33.4261 22.808 32.9726 22.808 32.413Z" fill="white"/>
<path d="M35.1147 32.413C35.1147 31.8535 34.6369 31.3999 34.0476 31.3999C33.4582 31.3999 32.9805 31.8535 32.9805 32.413C32.9805 32.9726 33.4582 33.4261 34.0476 33.4261C34.6369 33.4261 35.1147 32.9726 35.1147 32.413Z" fill="white"/>
<path d="M35.1147 38.2521C35.1147 37.6926 34.6369 37.239 34.0476 37.239C33.4582 37.239 32.9805 37.6926 32.9805 38.2521C32.9805 38.8117 33.4582 39.2653 34.0476 39.2653C34.6369 39.2653 35.1147 38.8117 35.1147 38.2521Z" fill="white"/>
<path d="M21.7448 42.2102H21.7388C20.6431 42.2102 19.7549 43.0535 19.7549 44.0938V44.0995C19.7549 45.1397 20.6431 45.983 21.7388 45.983H21.7448C22.8405 45.983 23.7287 45.1397 23.7287 44.0995V44.0938C23.7287 43.0535 22.8405 42.2102 21.7448 42.2102Z" fill="white"/>
<path d="M27.9001 42.2102H27.894C26.7984 42.2102 25.9102 43.0535 25.9102 44.0938V44.0995C25.9102 45.1397 26.7984 45.983 27.894 45.983H27.9001C28.9957 45.983 29.884 45.1397 29.884 44.0995V44.0938C29.884 43.0535 28.9957 42.2102 27.9001 42.2102Z" fill="white"/>
<path d="M34.0505 42.2102H34.0444C32.9488 42.2102 32.0605 43.0535 32.0605 44.0938V44.0995C32.0605 45.1397 32.9488 45.983 34.0444 45.983H34.0505C35.1461 45.983 36.0343 45.1397 36.0343 44.0995V44.0938C36.0343 43.0535 35.1461 42.2102 34.0505 42.2102Z" fill="white"/>
<path d="M34.0505 48.0549H34.0444C32.9488 48.0549 32.0605 48.8982 32.0605 49.9385V49.9442C32.0605 50.9844 32.9488 51.8277 34.0444 51.8277H34.0505C35.1461 51.8277 36.0343 50.9844 36.0343 49.9442V49.9385C36.0343 48.8982 35.1461 48.0549 34.0505 48.0549Z" fill="white"/>
<path d="M27.9001 53.894H27.894C26.7984 53.894 25.9102 54.7373 25.9102 55.7776V55.7833C25.9102 56.8236 26.7984 57.6668 27.894 57.6668H27.9001C28.9957 57.6668 29.884 56.8236 29.884 55.7833V55.7776C29.884 54.7373 28.9957 53.894 27.9001 53.894Z" fill="white"/>
<path d="M34.0505 53.894H34.0444C32.9488 53.894 32.0605 54.7373 32.0605 55.7776V55.7833C32.0605 56.8236 32.9488 57.6668 34.0444 57.6668H34.0505C35.1461 57.6668 36.0343 56.8236 36.0343 55.7833V55.7776C36.0343 54.7373 35.1461 53.894 34.0505 53.894Z" fill="white"/>
<path d="M34.0505 59.7329H34.0444C32.9488 59.7329 32.0605 60.5762 32.0605 61.6165V61.6222C32.0605 62.6624 32.9488 63.5057 34.0444 63.5057H34.0505C35.1461 63.5057 36.0343 62.6624 36.0343 61.6222V61.6165C36.0343 60.5762 35.1461 59.7329 34.0505 59.7329Z" fill="white"/>
<path d="M21.7448 65.5776H21.7388C20.6431 65.5776 19.7549 66.4209 19.7549 67.4612V67.4669C19.7549 68.5071 20.6431 69.3504 21.7388 69.3504H21.7448C22.8405 69.3504 23.7287 68.5071 23.7287 67.4669V67.4612C23.7287 66.4209 22.8405 65.5776 21.7448 65.5776Z" fill="white"/>
<path d="M27.9001 65.5776H27.894C26.7984 65.5776 25.9102 66.4209 25.9102 67.4612V67.4669C25.9102 68.5071 26.7984 69.3504 27.894 69.3504H27.9001C28.9957 69.3504 29.884 68.5071 29.884 67.4669V67.4612C29.884 66.4209 28.9957 65.5776 27.9001 65.5776Z" fill="white"/>
<path d="M34.0505 65.5776H34.0444C32.9488 65.5776 32.0605 66.4209 32.0605 67.4612V67.4669C32.0605 68.5071 32.9488 69.3504 34.0444 69.3504H34.0505C35.1461 69.3504 36.0343 68.5071 36.0343 67.4669V67.4612C36.0343 66.4209 35.1461 65.5776 34.0505 65.5776Z" fill="white"/>
</g>
<path d="M65.576 67.2197L58.0675 44.6756C57.8618 44.0589 58.1361 43.7163 58.7532 43.7163H62.0103C62.4903 43.7163 62.8332 43.9561 62.9703 44.4358L68.2159 61.6351L73.3244 44.4358C73.4616 43.9219 73.8044 43.7163 74.2844 43.7163H77.5758C78.0558 43.7163 78.3986 43.9219 78.5358 44.4358L83.61 61.6351L88.8899 44.4358C89.027 43.9561 89.3699 43.7163 89.8498 43.7163H93.1069C93.7241 43.7163 93.9983 44.0589 93.7926 44.6756L86.2842 67.2197C86.1128 67.6993 85.7699 67.9049 85.2899 67.9049H81.8957C81.4157 67.9049 81.0729 67.6993 80.9357 67.1854L75.9301 50.363L70.8902 67.1854C70.753 67.6993 70.4102 67.9049 69.9302 67.9049H66.5702C66.0903 67.9049 65.7474 67.6651 65.576 67.2197Z" fill="white"/>
<path d="M95.2977 60.1266C95.2612 59.5033 95.5918 59.1728 96.1791 59.1728H99.4473C100.035 59.1728 100.365 59.5033 100.402 60.0902C100.585 62.5117 101.614 63.0621 103.963 63.0621H111.38C113.95 63.0621 115.162 62.5481 115.162 60.3466V59.7597C115.162 57.5946 114.024 57.0077 111.784 57.0077H104.992C104.404 57.0077 104.074 56.6773 104.074 56.0904V53.7783C104.074 53.1915 104.404 52.861 104.992 52.861H111.601C113.767 52.861 114.942 52.3835 114.942 50.256V49.6692C114.942 47.4676 113.767 46.8807 111.123 46.8807H103.963C101.613 46.8807 100.585 47.3946 100.402 49.8161C100.365 50.403 100.035 50.7335 99.4473 50.7335H96.1791C95.5918 50.7335 95.2612 50.403 95.2977 49.7797C95.5542 44.5697 98.1986 42.0012 103.963 42.0012H111.307C117.255 42.0012 120.008 44.4227 120.046 49.1563V49.5233C120.046 52.5692 118.834 54.0369 117.403 54.9167C118.871 55.7975 120.23 57.3747 120.23 60.5676V60.8981C120.23 65.5952 117.512 67.9062 111.564 67.9062H103.964C98.1997 67.9062 95.5553 65.3377 95.2988 60.1277L95.2977 60.1266Z" fill="white"/>
<path d="M124.194 66.9877V42.9173C124.194 42.3305 124.525 42 125.112 42H139.322C145.527 42 147.987 44.4215 148.061 49.1551V49.522C148.061 52.568 146.813 53.9981 145.38 54.879C146.849 55.7598 148.245 57.3746 148.245 60.5664V60.8969C148.245 65.594 145.785 67.905 139.58 67.905H125.112C124.525 67.905 124.194 67.5745 124.194 66.9877ZM139.432 52.8609C141.341 52.8609 142.774 52.3834 142.774 50.2559V49.669C142.774 47.4675 141.341 46.8806 138.991 46.8806H129.261V52.862H139.431L139.432 52.8609ZM139.249 63.062C141.525 63.062 143.031 62.548 143.031 60.3465V59.7596C143.031 57.5945 141.599 56.9712 139.616 56.9712H129.262V63.062H139.249Z" fill="white"/>
<path d="M151.733 58.9893V50.9533C151.733 45.4494 154.34 42 160.435 42H169.871C175.966 42 178.573 45.4494 178.573 50.9533V58.9893C178.573 64.4567 175.966 67.9061 169.871 67.9061H160.435C154.34 67.9061 151.733 64.4567 151.733 58.9893ZM169.872 63.0255C172.332 63.0255 173.471 62.3281 173.471 59.1727V50.7698C173.471 47.578 172.443 46.8806 169.872 46.8806H160.436C157.903 46.8806 156.837 47.578 156.837 50.7698V59.1727C156.837 62.3281 157.976 63.0255 160.436 63.0255H169.872Z" fill="white"/>
<path d="M189.59 66.9877V46.9171H181.659C181.072 46.9171 180.741 46.5866 180.741 45.9997V42.9173C180.741 42.3305 181.072 42 181.659 42H202.625C203.212 42 203.543 42.3305 203.543 42.9173V45.9997C203.543 46.5866 203.212 46.9171 202.625 46.9171H194.694V66.9877C194.694 67.5745 194.363 67.905 193.776 67.905H190.508C189.921 67.905 189.59 67.5745 189.59 66.9877Z" fill="white"/>
<path d="M205.525 60.1266C205.489 59.5033 205.819 59.1728 206.407 59.1728H209.675C210.262 59.1728 210.556 59.5033 210.593 60.0902C210.813 62.2188 211.805 63.0256 214.192 63.0256H221.388C224.179 63.0256 225.171 62.3282 225.171 60.2007C225.171 58.0732 224.216 57.5957 221.755 57.4122L213.567 56.7889C207.912 56.349 205.672 54.5144 205.672 49.6703C205.672 44.8261 208.059 42.0012 214.448 42.0012H221.168C226.97 42.0012 229.577 44.6062 229.833 49.7797C229.87 50.403 229.539 50.7335 228.952 50.7335H225.647C225.06 50.7335 224.766 50.403 224.729 49.8161C224.509 47.6875 223.517 46.8807 221.168 46.8807H214.522C211.695 46.8807 210.703 47.5416 210.703 49.7056C210.703 51.7237 211.658 52.2377 214.119 52.4211L222.307 53.0445C227.888 53.4843 230.238 55.4295 230.238 60.2361C230.238 65.0426 227.851 67.9051 221.426 67.9051H214.193C208.354 67.9051 205.784 65.3001 205.527 60.1266H205.525Z" fill="white"/>
<path d="M61.4205 18.6364C61.4205 19.5568 61.2543 20.3523 60.9219 21.0227C60.5895 21.6932 60.1335 22.2102 59.554 22.5739C58.9744 22.9375 58.3125 23.1193 57.5682 23.1193C56.8239 23.1193 56.1619 22.9375 55.5824 22.5739C55.0028 22.2102 54.5469 21.6932 54.2145 21.0227C53.8821 20.3523 53.7159 19.5568 53.7159 18.6364C53.7159 17.7159 53.8821 16.9205 54.2145 16.25C54.5469 15.5795 55.0028 15.0625 55.5824 14.6989C56.1619 14.3352 56.8239 14.1534 57.5682 14.1534C58.3125 14.1534 58.9744 14.3352 59.554 14.6989C60.1335 15.0625 60.5895 15.5795 60.9219 16.25C61.2543 16.9205 61.4205 17.7159 61.4205 18.6364ZM60.3977 18.6364C60.3977 17.8807 60.2713 17.2429 60.0185 16.723C59.7685 16.2031 59.429 15.8097 59 15.5426C58.5739 15.2756 58.0966 15.142 57.5682 15.142C57.0398 15.142 56.5611 15.2756 56.1321 15.5426C55.706 15.8097 55.3665 16.2031 55.1136 16.723C54.8636 17.2429 54.7386 17.8807 54.7386 18.6364C54.7386 19.392 54.8636 20.0298 55.1136 20.5497C55.3665 21.0696 55.706 21.4631 56.1321 21.7301C56.5611 21.9972 57.0398 22.1307 57.5682 22.1307C58.0966 22.1307 58.5739 21.9972 59 21.7301C59.429 21.4631 59.7685 21.0696 60.0185 20.5497C60.2713 20.0298 60.3977 19.392 60.3977 18.6364ZM63.1974 23V14.2727H68.4304V15.2102H64.2543V18.1591H68.0384V19.0966H64.2543V23H63.1974ZM70.2404 23V14.2727H75.4734V15.2102H71.2972V18.1591H75.0813V19.0966H71.2972V23H70.2404ZM78.3402 14.2727V23H77.2834V14.2727H78.3402ZM87.4819 17H86.4251C86.3626 16.696 86.2532 16.429 86.0969 16.1989C85.9435 15.9688 85.756 15.7756 85.5344 15.6193C85.3157 15.4602 85.0728 15.3409 84.8058 15.2614C84.5387 15.1818 84.2603 15.142 83.9705 15.142C83.4421 15.142 82.9634 15.2756 82.5344 15.5426C82.1083 15.8097 81.7688 16.2031 81.516 16.723C81.266 17.2429 81.141 17.8807 81.141 18.6364C81.141 19.392 81.266 20.0298 81.516 20.5497C81.7688 21.0696 82.1083 21.4631 82.5344 21.7301C82.9634 21.9972 83.4421 22.1307 83.9705 22.1307C84.2603 22.1307 84.5387 22.0909 84.8058 22.0114C85.0728 21.9318 85.3157 21.8139 85.5344 21.6577C85.756 21.4986 85.9435 21.304 86.0969 21.0739C86.2532 20.8409 86.3626 20.5739 86.4251 20.2727H87.4819C87.4023 20.7187 87.2575 21.1179 87.0472 21.4702C86.837 21.8224 86.5756 22.1222 86.2631 22.3693C85.9506 22.6136 85.5998 22.7997 85.2106 22.9276C84.8242 23.0554 84.4109 23.1193 83.9705 23.1193C83.2262 23.1193 82.5643 22.9375 81.9847 22.5739C81.4052 22.2102 80.9492 21.6932 80.6168 21.0227C80.2844 20.3523 80.1183 19.5568 80.1183 18.6364C80.1183 17.7159 80.2844 16.9205 80.6168 16.25C80.9492 15.5795 81.4052 15.0625 81.9847 14.6989C82.5643 14.3352 83.2262 14.1534 83.9705 14.1534C84.4109 14.1534 84.8242 14.2173 85.2106 14.3452C85.5998 14.473 85.9506 14.6605 86.2631 14.9077C86.5756 15.152 86.837 15.4503 87.0472 15.8026C87.2575 16.152 87.4023 16.5511 87.4819 17ZM90.2464 14.2727V23H89.1896V14.2727H90.2464ZM92.7234 23H91.6154L94.82 14.2727H95.9109L99.1154 23H98.0075L95.3995 15.6534H95.3313L92.7234 23ZM93.1325 19.5909H97.5984V20.5284H93.1325V19.5909ZM100.475 23V14.2727H101.532V22.0625H105.588V23H100.475ZM110.6 23V14.2727H113.549C114.233 14.2727 114.793 14.3963 115.228 14.6435C115.665 14.8878 115.989 15.2188 116.199 15.6364C116.409 16.054 116.515 16.5199 116.515 17.0341C116.515 17.5483 116.409 18.0156 116.199 18.4361C115.992 18.8565 115.671 19.1918 115.236 19.4418C114.801 19.6889 114.245 19.8125 113.566 19.8125H111.452V18.875H113.532C114 18.875 114.377 18.794 114.661 18.6321C114.945 18.4702 115.151 18.2514 115.279 17.9759C115.409 17.6974 115.475 17.3835 115.475 17.0341C115.475 16.6847 115.409 16.3722 115.279 16.0966C115.151 15.821 114.944 15.6051 114.657 15.4489C114.37 15.2898 113.989 15.2102 113.515 15.2102H111.657V23H110.6ZM118.217 23V14.2727H121.166C121.848 14.2727 122.407 14.3892 122.845 14.6222C123.282 14.8523 123.606 15.169 123.816 15.5724C124.027 15.9759 124.132 16.4347 124.132 16.9489C124.132 17.4631 124.027 17.919 123.816 18.3168C123.606 18.7145 123.284 19.027 122.849 19.2543C122.414 19.4787 121.859 19.5909 121.183 19.5909H118.797V18.6364H121.149C121.615 18.6364 121.99 18.5682 122.274 18.4318C122.561 18.2955 122.768 18.1023 122.896 17.8523C123.027 17.5994 123.092 17.2983 123.092 16.9489C123.092 16.5994 123.027 16.294 122.896 16.0327C122.765 15.7713 122.556 15.5696 122.27 15.4276C121.983 15.2827 121.603 15.2102 121.132 15.2102H119.274V23H118.217ZM122.325 19.0795L124.473 23H123.245L121.132 19.0795H122.325ZM133.256 18.6364C133.256 19.5568 133.09 20.3523 132.758 21.0227C132.425 21.6932 131.969 22.2102 131.39 22.5739C130.81 22.9375 130.148 23.1193 129.404 23.1193C128.66 23.1193 127.998 22.9375 127.418 22.5739C126.839 22.2102 126.383 21.6932 126.05 21.0227C125.718 20.3523 125.552 19.5568 125.552 18.6364C125.552 17.7159 125.718 16.9205 126.05 16.25C126.383 15.5795 126.839 15.0625 127.418 14.6989C127.998 14.3352 128.66 14.1534 129.404 14.1534C130.148 14.1534 130.81 14.3352 131.39 14.6989C131.969 15.0625 132.425 15.5795 132.758 16.25C133.09 16.9205 133.256 17.7159 133.256 18.6364ZM132.234 18.6364C132.234 17.8807 132.107 17.2429 131.854 16.723C131.604 16.2031 131.265 15.8097 130.836 15.5426C130.41 15.2756 129.933 15.142 129.404 15.142C128.876 15.142 128.397 15.2756 127.968 15.5426C127.542 15.8097 127.202 16.2031 126.95 16.723C126.7 17.2429 126.575 17.8807 126.575 18.6364C126.575 19.392 126.7 20.0298 126.95 20.5497C127.202 21.0696 127.542 21.4631 127.968 21.7301C128.397 21.9972 128.876 22.1307 129.404 22.1307C129.933 22.1307 130.41 21.9972 130.836 21.7301C131.265 21.4631 131.604 21.0696 131.854 20.5497C132.107 20.0298 132.234 19.392 132.234 18.6364ZM137.727 23H135.033V14.2727H137.846C138.692 14.2727 139.417 14.4474 140.019 14.7969C140.621 15.1435 141.083 15.642 141.404 16.2926C141.725 16.9403 141.886 17.7159 141.886 18.6193C141.886 19.5284 141.724 20.3111 141.4 20.9673C141.076 21.6207 140.604 22.1236 139.985 22.4759C139.366 22.8253 138.613 23 137.727 23ZM136.09 22.0625H137.658C138.38 22.0625 138.978 21.9233 139.452 21.6449C139.927 21.3665 140.281 20.9702 140.513 20.456C140.746 19.9418 140.863 19.3295 140.863 18.6193C140.863 17.9148 140.748 17.3082 140.518 16.7997C140.288 16.2884 139.944 15.8963 139.487 15.6236C139.029 15.348 138.46 15.2102 137.778 15.2102H136.09V22.0625ZM149.386 14.2727H150.442V20.0511C150.442 20.6477 150.302 21.1804 150.021 21.6491C149.742 22.1151 149.349 22.483 148.84 22.7528C148.332 23.0199 147.735 23.1534 147.05 23.1534C146.366 23.1534 145.769 23.0199 145.261 22.7528C144.752 22.483 144.357 22.1151 144.076 21.6491C143.798 21.1804 143.658 20.6477 143.658 20.0511V14.2727H144.715V19.9659C144.715 20.392 144.809 20.7713 144.996 21.1037C145.184 21.4332 145.451 21.6932 145.798 21.8835C146.147 22.071 146.565 22.1648 147.05 22.1648C147.536 22.1648 147.954 22.071 148.303 21.8835C148.653 21.6932 148.92 21.4332 149.104 21.1037C149.292 20.7713 149.386 20.392 149.386 19.9659V14.2727ZM159.576 17H158.519C158.456 16.696 158.347 16.429 158.191 16.1989C158.037 15.9688 157.85 15.7756 157.628 15.6193C157.409 15.4602 157.167 15.3409 156.9 15.2614C156.632 15.1818 156.354 15.142 156.064 15.142C155.536 15.142 155.057 15.2756 154.628 15.5426C154.202 15.8097 153.863 16.2031 153.61 16.723C153.36 17.2429 153.235 17.8807 153.235 18.6364C153.235 19.392 153.36 20.0298 153.61 20.5497C153.863 21.0696 154.202 21.4631 154.628 21.7301C155.057 21.9972 155.536 22.1307 156.064 22.1307C156.354 22.1307 156.632 22.0909 156.9 22.0114C157.167 21.9318 157.409 21.8139 157.628 21.6577C157.85 21.4986 158.037 21.304 158.191 21.0739C158.347 20.8409 158.456 20.5739 158.519 20.2727H159.576C159.496 20.7187 159.351 21.1179 159.141 21.4702C158.931 21.8224 158.669 22.1222 158.357 22.3693C158.044 22.6136 157.694 22.7997 157.304 22.9276C156.918 23.0554 156.505 23.1193 156.064 23.1193C155.32 23.1193 154.658 22.9375 154.078 22.5739C153.499 22.2102 153.043 21.6932 152.711 21.0227C152.378 20.3523 152.212 19.5568 152.212 18.6364C152.212 17.7159 152.378 16.9205 152.711 16.25C153.043 15.5795 153.499 15.0625 154.078 14.6989C154.658 14.3352 155.32 14.1534 156.064 14.1534C156.505 14.1534 156.918 14.2173 157.304 14.3452C157.694 14.473 158.044 14.6605 158.357 14.9077C158.669 15.152 158.931 15.4503 159.141 15.8026C159.351 16.152 159.496 16.5511 159.576 17ZM160.806 15.2102V14.2727H167.352V15.2102H164.607V23H163.55V15.2102H160.806ZM179.721 18.6364C179.721 19.5568 179.555 20.3523 179.223 21.0227C178.89 21.6932 178.434 22.2102 177.855 22.5739C177.275 22.9375 176.613 23.1193 175.869 23.1193C175.125 23.1193 174.463 22.9375 173.883 22.5739C173.304 22.2102 172.848 21.6932 172.515 21.0227C172.183 20.3523 172.017 19.5568 172.017 18.6364C172.017 17.7159 172.183 16.9205 172.515 16.25C172.848 15.5795 173.304 15.0625 173.883 14.6989C174.463 14.3352 175.125 14.1534 175.869 14.1534C176.613 14.1534 177.275 14.3352 177.855 14.6989C178.434 15.0625 178.89 15.5795 179.223 16.25C179.555 16.9205 179.721 17.7159 179.721 18.6364ZM178.699 18.6364C178.699 17.8807 178.572 17.2429 178.319 16.723C178.069 16.2031 177.73 15.8097 177.301 15.5426C176.875 15.2756 176.397 15.142 175.869 15.142C175.341 15.142 174.862 15.2756 174.433 15.5426C174.007 15.8097 173.667 16.2031 173.414 16.723C173.164 17.2429 173.039 17.8807 173.039 18.6364C173.039 19.392 173.164 20.0298 173.414 20.5497C173.667 21.0696 174.007 21.4631 174.433 21.7301C174.862 21.9972 175.341 22.1307 175.869 22.1307C176.397 22.1307 176.875 21.9972 177.301 21.7301C177.73 21.4631 178.069 21.0696 178.319 20.5497C178.572 20.0298 178.699 19.392 178.699 18.6364ZM181.498 23V14.2727H186.731V15.2102H182.555V18.1591H186.339V19.0966H182.555V23H181.498Z" fill="white"/>
<defs>
<clipPath id="clip0_617_395">
<rect width="39.0526" height="54.6" fill="white" transform="translate(8.36816 31.3999)"/>
</clipPath>
</defs>
</svg>
