<?xml version="1.0" encoding="utf-8"?>
<!-- Generator: Adobe Illustrator 27.5.0, SVG Export Plug-In . SVG Version: 6.00 Build 0)  -->
<svg version="1.1" id="Layer_1" xmlns="http://www.w3.org/2000/svg" xmlns:xlink="http://www.w3.org/1999/xlink" x="0px" y="0px"
	 viewBox="0 0 138.512 200" style="enable-background:new 0 0 138.512 200;" xml:space="preserve">
<g>
	<g>
		<path style="fill:#4a4a4a;" d="M115.355,80.402c-15.606-8.829-30.863-23.89-43.651-43.079l-0.173-0.1
			c-12.788,4.424-28.045,1.866-43.65-7.324l-0.597-0.351l0.842,29.159c2.961,45.199,18.377,64.872,43.189,106.894l0.604,0.349
			c24.812-13.372,40.228-15.244,43.189-57.023l0.842-28.186L115.355,80.402z"/>
		<path style="fill:#bbbbbb;" d="M120.602,75.855c-15.606-8.829-30.863-23.889-43.651-43.079l-0.173-0.1
			c-12.787,4.424-28.045,1.867-43.65-7.324L32.531,25l-5.08,4.647l0.429,0.252c15.605,9.191,30.863,11.748,43.65,7.324l0.173,0.1
			c12.788,19.189,28.045,34.25,43.651,43.079l0.596,0.337l-0.842,28.186c-1.933,27.269-9.174,37.535-20.868,45.096
			c14.61-8.628,23.942-18.993,26.115-49.644l0.842-28.186L120.602,75.855z"/>
		<path style="fill:#bbbbbb;" d="M121.198,76.192l-0.596-0.338c-15.606-8.829-30.863-23.889-43.651-43.079l-0.173-0.1l-5.247,4.548
			l0.173,0.1c12.788,19.189,28.045,34.25,43.651,43.079l0.596,0.337L121.198,76.192z"/>
		<path style="fill:#888888;" d="M115.951,80.74l-0.842,28.186c-1.933,27.269-9.174,37.535-20.868,45.096
			c14.61-8.628,23.942-18.993,26.115-49.644l0.842-28.186L115.951,80.74z"/>
		<g>
			<path style="fill:#003366;" d="M113.735,81.529c-15.259-8.633-30.176-23.358-42.68-42.121l-0.169-0.098
				c-12.502,4.325-27.421,1.825-42.679-7.161l-0.583-0.344l-4.967,4.543l0.42,0.247c15.258,8.986,30.176,11.486,42.679,7.161
				l0.169,0.098c12.504,18.762,27.421,33.488,42.68,42.121l0.583,0.33l-0.824,27.559c-1.89,26.662-8.97,36.7-20.403,44.093
				c14.285-8.436,23.41-18.571,25.534-48.539l0.824-27.559L113.735,81.529z"/>
			<path style="fill:#003366;" d="M114.318,81.859l-0.583-0.33c-15.259-8.633-30.176-23.358-42.68-42.121l-0.169-0.098l-5.131,4.446
				l0.169,0.098c12.504,18.762,27.421,33.488,42.68,42.121l0.583,0.33L114.318,81.859z"/>
			<path style="fill:#003366;" d="M109.188,86.305l-0.824,27.559c-1.89,26.662-8.97,36.7-20.403,44.093
				c14.285-8.436,23.41-18.571,25.534-48.539l0.824-27.559L109.188,86.305z"/>
		</g>
		<path style="fill:#4a4a4a;" d="M105.385,89.454c-15.606-8.829-30.863-23.89-43.651-43.079l-0.173-0.1
			c-12.788,4.424-28.045,1.866-43.65-7.324l-0.597-0.351l0.842,29.159c2.961,45.199,18.377,64.872,43.189,106.894L61.95,175
			c24.812-13.372,40.228-15.244,43.189-57.023l0.842-28.186L105.385,89.454z"/>
		<path style="fill:#bbbbbb;" d="M110.632,84.906c-15.606-8.829-30.863-23.889-43.651-43.079l-0.173-0.1
			c-12.787,4.424-28.045,1.867-43.65-7.324l-0.596-0.352l-5.08,4.647l0.429,0.252c15.605,9.19,30.863,11.748,43.65,7.324l0.173,0.1
			c12.788,19.189,28.045,34.25,43.651,43.079l0.596,0.337l-0.842,28.186c-1.933,27.269-9.174,37.535-20.868,45.096
			c14.61-8.628,23.942-18.993,26.115-49.644l0.842-28.186L110.632,84.906z"/>
		<path style="fill:#bbbbbb;" d="M111.229,85.244l-0.596-0.338c-15.606-8.829-30.863-23.889-43.651-43.079l-0.173-0.1l-5.247,4.548
			l0.173,0.1c12.788,19.189,28.045,34.25,43.651,43.079l0.596,0.337L111.229,85.244z"/>
		<path style="fill:#888888;" d="M105.981,89.791l-0.842,28.186c-1.933,27.269-9.174,37.535-20.868,45.096
			c14.61-8.628,23.942-18.993,26.115-49.644l0.842-28.186L105.981,89.791z"/>
		<path style="fill:#003366;" d="M58.563,155.522C39.302,123.573,29.614,107.5,27.277,72.434l-0.532-18.407
			c12.367,5.591,24.222,7.374,34.904,5.248c10.678,14.458,22.534,26.365,34.901,35.054l-0.532,17.793
			c-2.337,32.371-12.025,37.257-31.289,46.968c-1.008,0.51-2.033,1.026-3.08,1.558C60.599,158.905,59.57,157.195,58.563,155.522z"/>
		<path style="fill:#0033ff;" d="M59.633,154.987c-19.261-31.949-28.949-48.022-31.286-83.088l-0.503-17.395
			c-0.367-0.16-0.732-0.311-1.1-0.477l0.532,18.407c2.337,35.066,12.025,51.139,31.286,83.088c1.008,1.673,2.036,3.383,3.086,5.125
			c0.363-0.184,0.71-0.359,1.068-0.54C61.668,158.366,60.64,156.659,59.633,154.987z"/>
	</g>
</g>
</svg>
